<?xml version="1.0" encoding="UTF-8"?>
<svg width="1502px" height="510px" viewBox="0 0 1502 510" version="1.1" xmlns="http://www.w3.org/2000/svg" xmlns:xlink="http://www.w3.org/1999/xlink">
    <!-- Generator: Sketch 40.2 (33826) - http://www.bohemiancoding.com/sketch -->
    <title>dots-full</title>
    <desc>Created with Sketch.</desc>
    <defs>
        <linearGradient x1="52.6416016%" y1="73.6717645%" x2="50%" y2="100%" id="linearGradient-1">
            <stop stop-color="#FFFFFF" stop-opacity="0" offset="0%"></stop>
            <stop stop-color="#FFFFFF" offset="100%"></stop>
        </linearGradient>
    </defs>
    <g id="Page-1" stroke="none" stroke-width="1" fill="none" fill-rule="evenodd">
        <g id="P-8" transform="translate(-409.000000, -327.000000)">
            <g id="dots-full" transform="translate(409.000000, 130.000000)">
                <g id="dots" transform="translate(3.000000, 197.000000)">
                    <circle id="Oval" fill="#B83B5E" transform="translate(606.000000, 502.000000) scale(-1, 1) translate(-606.000000, -502.000000) " cx="606" cy="502" r="5"></circle>
                    <circle id="Oval" fill="#F08A5D" transform="translate(607.500000, 471.500000) scale(-1, 1) translate(-607.500000, -471.500000) " cx="607.5" cy="471.5" r="5.5"></circle>
                    <circle id="Oval" fill="#F9ED69" transform="translate(609.000000, 440.000000) scale(-1, 1) translate(-609.000000, -440.000000) " cx="609" cy="440" r="6"></circle>
                    <circle id="Oval" fill="#F08A5D" transform="translate(636.000000, 502.000000) scale(-1, 1) translate(-636.000000, -502.000000) " cx="636" cy="502" r="5"></circle>
                    <circle id="Oval" fill="#F08A5D" transform="translate(637.500000, 471.500000) scale(-1, 1) translate(-637.500000, -471.500000) " cx="637.5" cy="471.5" r="5.5"></circle>
                    <circle id="Oval" fill="#F9ED69" transform="translate(639.000000, 440.000000) scale(-1, 1) translate(-639.000000, -440.000000) " cx="639" cy="440" r="6"></circle>
                    <circle id="Oval" fill="#F08A5D" transform="translate(666.000000, 502.000000) scale(-1, 1) translate(-666.000000, -502.000000) " cx="666" cy="502" r="5"></circle>
                    <circle id="Oval" fill="#F08A5D" transform="translate(667.500000, 471.500000) scale(-1, 1) translate(-667.500000, -471.500000) " cx="667.5" cy="471.5" r="5.5"></circle>
                    <circle id="Oval" fill="#F08A5D" transform="translate(669.000000, 440.000000) scale(-1, 1) translate(-669.000000, -440.000000) " cx="669" cy="440" r="6"></circle>
                    <circle id="Oval" fill="#F08A5D" transform="translate(696.000000, 502.000000) scale(-1, 1) translate(-696.000000, -502.000000) " cx="696" cy="502" r="5"></circle>
                    <circle id="Oval" fill="#6A2C70" transform="translate(697.500000, 471.500000) scale(-1, 1) translate(-697.500000, -471.500000) " cx="697.5" cy="471.5" r="5.5"></circle>
                    <circle id="Oval" fill="#F08A5D" transform="translate(699.000000, 440.000000) scale(-1, 1) translate(-699.000000, -440.000000) " cx="699" cy="440" r="6"></circle>
                    <circle id="Oval" fill="#F08A5D" transform="translate(726.000000, 502.000000) scale(-1, 1) translate(-726.000000, -502.000000) " cx="726" cy="502" r="5"></circle>
                    <circle id="Oval" fill="#F08A5D" transform="translate(727.500000, 471.500000) scale(-1, 1) translate(-727.500000, -471.500000) " cx="727.5" cy="471.5" r="5.5"></circle>
                    <circle id="Oval" fill="#F08A5D" transform="translate(729.000000, 440.000000) scale(-1, 1) translate(-729.000000, -440.000000) " cx="729" cy="440" r="6"></circle>
                    <circle id="Oval" fill="#F08A5D" transform="translate(756.000000, 502.000000) scale(-1, 1) translate(-756.000000, -502.000000) " cx="756" cy="502" r="5"></circle>
                    <circle id="Oval" fill="#F9ED69" transform="translate(757.500000, 471.500000) scale(-1, 1) translate(-757.500000, -471.500000) " cx="757.5" cy="471.5" r="5.5"></circle>
                    <circle id="Oval" fill="#F08A5D" transform="translate(759.000000, 440.000000) scale(-1, 1) translate(-759.000000, -440.000000) " cx="759" cy="440" r="6"></circle>
                    <circle id="Oval" fill="#F08A5D" transform="translate(786.000000, 502.000000) scale(-1, 1) translate(-786.000000, -502.000000) " cx="786" cy="502" r="5"></circle>
                    <circle id="Oval" fill="#F08A5D" transform="translate(787.500000, 471.500000) scale(-1, 1) translate(-787.500000, -471.500000) " cx="787.5" cy="471.5" r="5.5"></circle>
                    <circle id="Oval" fill="#B83B5E" transform="translate(789.000000, 440.000000) scale(-1, 1) translate(-789.000000, -440.000000) " cx="789" cy="440" r="6"></circle>
                    <circle id="Oval" fill="#F9ED69" transform="translate(1056.000000, 502.000000) scale(-1, 1) translate(-1056.000000, -502.000000) " cx="1056" cy="502" r="5"></circle>
                    <circle id="Oval" fill="#F08A5D" transform="translate(1057.500000, 471.500000) scale(-1, 1) translate(-1057.500000, -471.500000) " cx="1057.5" cy="471.5" r="5.5"></circle>
                    <circle id="Oval" fill="#F08A5D" transform="translate(1059.000000, 440.000000) scale(-1, 1) translate(-1059.000000, -440.000000) " cx="1059" cy="440" r="6"></circle>
                    <circle id="Oval" fill="#F08A5D" transform="translate(1086.000000, 502.000000) scale(-1, 1) translate(-1086.000000, -502.000000) " cx="1086" cy="502" r="5"></circle>
                    <circle id="Oval" fill="#F08A5D" transform="translate(1087.500000, 471.500000) scale(-1, 1) translate(-1087.500000, -471.500000) " cx="1087.5" cy="471.5" r="5.5"></circle>
                    <circle id="Oval" fill="#F08A5D" transform="translate(1089.000000, 440.000000) scale(-1, 1) translate(-1089.000000, -440.000000) " cx="1089" cy="440" r="6"></circle>
                    <circle id="Oval" fill="#F08A5D" transform="translate(1116.000000, 502.000000) scale(-1, 1) translate(-1116.000000, -502.000000) " cx="1116" cy="502" r="5"></circle>
                    <circle id="Oval" fill="#6A2C70" transform="translate(1117.500000, 471.500000) scale(-1, 1) translate(-1117.500000, -471.500000) " cx="1117.5" cy="471.5" r="5.5"></circle>
                    <circle id="Oval" fill="#F08A5D" transform="translate(1119.000000, 440.000000) scale(-1, 1) translate(-1119.000000, -440.000000) " cx="1119" cy="440" r="6"></circle>
                    <circle id="Oval" fill="#F08A5D" transform="translate(1146.000000, 502.000000) scale(-1, 1) translate(-1146.000000, -502.000000) " cx="1146" cy="502" r="5"></circle>
                    <circle id="Oval" fill="#F08A5D" transform="translate(1147.500000, 471.500000) scale(-1, 1) translate(-1147.500000, -471.500000) " cx="1147.5" cy="471.5" r="5.5"></circle>
                    <circle id="Oval" fill="#F08A5D" transform="translate(1149.000000, 440.000000) scale(-1, 1) translate(-1149.000000, -440.000000) " cx="1149" cy="440" r="6"></circle>
                    <circle id="Oval" fill="#B83B5E" transform="translate(1176.000000, 502.000000) scale(-1, 1) translate(-1176.000000, -502.000000) " cx="1176" cy="502" r="5"></circle>
                    <circle id="Oval" fill="#F9ED69" transform="translate(1177.500000, 471.500000) scale(-1, 1) translate(-1177.500000, -471.500000) " cx="1177.5" cy="471.5" r="5.5"></circle>
                    <circle id="Oval" fill="#F08A5D" transform="translate(1179.000000, 440.000000) scale(-1, 1) translate(-1179.000000, -440.000000) " cx="1179" cy="440" r="6"></circle>
                    <circle id="Oval" fill="#F08A5D" transform="translate(966.000000, 502.000000) scale(-1, 1) translate(-966.000000, -502.000000) " cx="966" cy="502" r="5"></circle>
                    <circle id="Oval" fill="#F08A5D" transform="translate(967.500000, 471.500000) scale(-1, 1) translate(-967.500000, -471.500000) " cx="967.5" cy="471.5" r="5.5"></circle>
                    <circle id="Oval" fill="#F08A5D" transform="translate(969.000000, 440.000000) scale(-1, 1) translate(-969.000000, -440.000000) " cx="969" cy="440" r="6"></circle>
                    <circle id="Oval" fill="#6A2C70" transform="translate(996.000000, 502.000000) scale(-1, 1) translate(-996.000000, -502.000000) " cx="996" cy="502" r="5"></circle>
                    <circle id="Oval" fill="#F08A5D" transform="translate(997.500000, 471.500000) scale(-1, 1) translate(-997.500000, -471.500000) " cx="997.5" cy="471.5" r="5.5"></circle>
                    <circle id="Oval" fill="#F08A5D" transform="translate(999.000000, 440.000000) scale(-1, 1) translate(-999.000000, -440.000000) " cx="999" cy="440" r="6"></circle>
                    <circle id="Oval" fill="#F08A5D" transform="translate(1026.000000, 502.000000) scale(-1, 1) translate(-1026.000000, -502.000000) " cx="1026" cy="502" r="5"></circle>
                    <circle id="Oval" fill="#F08A5D" transform="translate(1027.500000, 471.500000) scale(-1, 1) translate(-1027.500000, -471.500000) " cx="1027.5" cy="471.5" r="5.5"></circle>
                    <circle id="Oval" fill="#B83B5E" transform="translate(1029.000000, 440.000000) scale(-1, 1) translate(-1029.000000, -440.000000) " cx="1029" cy="440" r="6"></circle>
                    <circle id="Oval" fill="#F9ED69" transform="translate(816.000000, 502.000000) scale(-1, 1) translate(-816.000000, -502.000000) " cx="816" cy="502" r="5"></circle>
                    <circle id="Oval" fill="#6A2C70" transform="translate(817.500000, 471.500000) scale(-1, 1) translate(-817.500000, -471.500000) " cx="817.5" cy="471.5" r="5.5"></circle>
                    <circle id="Oval" fill="#F08A5D" transform="translate(819.000000, 440.000000) scale(-1, 1) translate(-819.000000, -440.000000) " cx="819" cy="440" r="6"></circle>
                    <circle id="Oval" fill="#F08A5D" transform="translate(846.000000, 502.000000) scale(-1, 1) translate(-846.000000, -502.000000) " cx="846" cy="502" r="5"></circle>
                    <circle id="Oval" fill="#F08A5D" transform="translate(847.500000, 471.500000) scale(-1, 1) translate(-847.500000, -471.500000) " cx="847.5" cy="471.5" r="5.5"></circle>
                    <circle id="Oval" fill="#F08A5D" transform="translate(849.000000, 440.000000) scale(-1, 1) translate(-849.000000, -440.000000) " cx="849" cy="440" r="6"></circle>
                    <circle id="Oval" fill="#F08A5D" transform="translate(876.000000, 502.000000) scale(-1, 1) translate(-876.000000, -502.000000) " cx="876" cy="502" r="5"></circle>
                    <circle id="Oval" fill="#6A2C70" transform="translate(877.500000, 471.500000) scale(-1, 1) translate(-877.500000, -471.500000) " cx="877.5" cy="471.5" r="5.5"></circle>
                    <circle id="Oval" fill="#F9ED69" transform="translate(879.000000, 440.000000) scale(-1, 1) translate(-879.000000, -440.000000) " cx="879" cy="440" r="6"></circle>
                    <circle id="Oval" fill="#6A2C70" transform="translate(906.000000, 502.000000) scale(-1, 1) translate(-906.000000, -502.000000) " cx="906" cy="502" r="5"></circle>
                    <circle id="Oval" fill="#F08A5D" transform="translate(907.500000, 471.500000) scale(-1, 1) translate(-907.500000, -471.500000) " cx="907.5" cy="471.5" r="5.5"></circle>
                    <circle id="Oval" fill="#F08A5D" transform="translate(909.000000, 440.000000) scale(-1, 1) translate(-909.000000, -440.000000) " cx="909" cy="440" r="6"></circle>
                    <circle id="Oval" fill="#F08A5D" transform="translate(936.000000, 502.000000) scale(-1, 1) translate(-936.000000, -502.000000) " cx="936" cy="502" r="5"></circle>
                    <circle id="Oval" fill="#B83B5E" transform="translate(937.500000, 471.500000) scale(-1, 1) translate(-937.500000, -471.500000) " cx="937.5" cy="471.5" r="5.5"></circle>
                    <circle id="Oval" fill="#6A2C70" transform="translate(939.000000, 440.000000) scale(-1, 1) translate(-939.000000, -440.000000) " cx="939" cy="440" r="6"></circle>
                    <circle id="Oval" fill="#B83B5E" cx="1183.5" cy="348.5" r="7.5"></circle>
                    <circle id="Oval" fill="#F08A5D" cx="1185" cy="318" r="8"></circle>
                    <circle id="Oval" fill="#F9ED69" cx="1186.5" cy="287.5" r="8.5"></circle>
                    <circle id="Oval" fill="#F08A5D" cx="1188" cy="257" r="9"></circle>
                    <circle id="Oval" fill="#F08A5D" cx="1189.5" cy="226.5" r="9.5"></circle>
                    <circle id="Oval" fill="#F08A5D" cx="1153.5" cy="348.5" r="7.5"></circle>
                    <circle id="Oval" fill="#F08A5D" cx="1155" cy="318" r="8"></circle>
                    <circle id="Oval" fill="#F9ED69" cx="1156.5" cy="287.5" r="8.5"></circle>
                    <circle id="Oval" fill="#6A2C70" cx="1158" cy="257" r="9"></circle>
                    <circle id="Oval" fill="#F08A5D" cx="1159.5" cy="226.5" r="9.5"></circle>
                    <circle id="Oval" fill="#F08A5D" cx="1123.5" cy="348.5" r="7.5"></circle>
                    <circle id="Oval" fill="#F08A5D" cx="1125" cy="318" r="8"></circle>
                    <circle id="Oval" fill="#F08A5D" cx="1126.5" cy="287.5" r="8.5"></circle>
                    <circle id="Oval" fill="#B83B5E" cx="1128" cy="257" r="9"></circle>
                    <circle id="Oval" fill="#F08A5D" cx="1093.5" cy="348.5" r="7.5"></circle>
                    <circle id="Oval" fill="#6A2C70" cx="1095" cy="318" r="8"></circle>
                    <circle id="Oval" fill="#F08A5D" cx="1096.5" cy="287.5" r="8.5"></circle>
                    <circle id="Oval" fill="#F08A5D" cx="1098" cy="257" r="9"></circle>
                    <circle id="Oval" fill="#F08A5D" cx="1063.5" cy="348.5" r="7.5"></circle>
                    <circle id="Oval" fill="#F08A5D" cx="1065" cy="318" r="8"></circle>
                    <circle id="Oval" fill="#F08A5D" cx="1066.5" cy="287.5" r="8.5"></circle>
                    <circle id="Oval" fill="#F08A5D" cx="1033.5" cy="348.5" r="7.5"></circle>
                    <circle id="Oval" fill="#F9ED69" cx="1035" cy="318" r="8"></circle>
                    <circle id="Oval" fill="#F08A5D" cx="1036.5" cy="287.5" r="8.5"></circle>
                    <circle id="Oval" fill="#F08A5D" cx="1129.5" cy="226.5" r="9.5"></circle>
                    <circle id="Oval" fill="#F08A5D" cx="1003.5" cy="348.5" r="7.5"></circle>
                    <circle id="Oval" fill="#F08A5D" cx="1005" cy="318" r="8"></circle>
                    <circle id="Oval" fill="#B83B5E" cx="1006.5" cy="287.5" r="8.5"></circle>
                    <circle id="Oval" fill="#F9ED69" cx="973.5" cy="348.5" r="7.5"></circle>
                    <circle id="Oval" fill="#F08A5D" cx="975" cy="318" r="8"></circle>
                    <circle id="Oval" fill="#F08A5D" cx="943.5" cy="348.5" r="7.5"></circle>
                    <circle id="Oval" fill="#F08A5D" cx="945" cy="318" r="8"></circle>
                    <circle id="Oval" fill="#F08A5D" cx="946.5" cy="287.5" r="8.5"></circle>
                    <circle id="Oval" fill="#F08A5D" cx="913.5" cy="348.5" r="7.5"></circle>
                    <circle id="Oval" fill="#6A2C70" cx="915" cy="318" r="8"></circle>
                    <circle id="Oval" fill="#F08A5D" cx="883.5" cy="348.5" r="7.5"></circle>
                    <circle id="Oval" fill="#F08A5D" cx="885" cy="318" r="8"></circle>
                    <circle id="Oval" fill="#B83B5E" cx="853.5" cy="348.5" r="7.5"></circle>
                    <circle id="Oval" fill="#F08A5D" cx="823.5" cy="348.5" r="7.5"></circle>
                    <circle id="Oval" fill="#F08A5D" cx="763.5" cy="348.5" r="7.5"></circle>
                    <circle id="Oval" fill="#F08A5D" cx="673.5" cy="348.5" r="7.5"></circle>
                    <circle id="Oval" fill="#6A2C70" cx="643.5" cy="348.5" r="7.5"></circle>
                    <circle id="Oval" fill="#F08A5D" cx="613.5" cy="348.5" r="7.5"></circle>
                    <circle id="Oval" fill="#6A2C70" cx="1067" cy="257" r="9"></circle>
                    <circle id="Oval" fill="#F9ED69" cx="1129.5" cy="226.5" r="9.5"></circle>
                    <circle id="Oval" fill="#B83B5E" cx="853.5" cy="348.5" r="7.5"></circle>
                    <circle id="Oval" fill="#6A2C70" cx="733.5" cy="348.5" r="7.5"></circle>
                    <circle id="Oval" fill="#F08A5D" cx="673.5" cy="348.5" r="7.5"></circle>
                    <circle id="Oval" fill="#F9ED69" transform="translate(942.000000, 379.000000) scale(-1, 1) translate(-942.000000, -379.000000) " cx="942" cy="379" r="7"></circle>
                    <circle id="Oval" fill="#F08A5D" transform="translate(610.500000, 409.500000) scale(-1, 1) translate(-610.500000, -409.500000) " cx="610.5" cy="409.5" r="6.5"></circle>
                    <circle id="Oval" fill="#F08A5D" transform="translate(612.000000, 379.000000) scale(-1, 1) translate(-612.000000, -379.000000) " cx="612" cy="379" r="7"></circle>
                    <circle id="Oval" fill="#6A2C70" transform="translate(640.500000, 409.500000) scale(-1, 1) translate(-640.500000, -409.500000) " cx="640.5" cy="409.5" r="6.5"></circle>
                    <circle id="Oval" fill="#F08A5D" transform="translate(642.000000, 379.000000) scale(-1, 1) translate(-642.000000, -379.000000) " cx="642" cy="379" r="7"></circle>
                    <circle id="Oval" fill="#B83B5E" transform="translate(670.500000, 409.500000) scale(-1, 1) translate(-670.500000, -409.500000) " cx="670.5" cy="409.5" r="6.5"></circle>
                    <circle id="Oval" fill="#F08A5D" transform="translate(672.000000, 379.000000) scale(-1, 1) translate(-672.000000, -379.000000) " cx="672" cy="379" r="7"></circle>
                    <circle id="Oval" fill="#F08A5D" transform="translate(700.500000, 409.500000) scale(-1, 1) translate(-700.500000, -409.500000) " cx="700.5" cy="409.5" r="6.5"></circle>
                    <circle id="Oval" fill="#F08A5D" transform="translate(702.000000, 379.000000) scale(-1, 1) translate(-702.000000, -379.000000) " cx="702" cy="379" r="7"></circle>
                    <circle id="Oval" fill="#F08A5D" transform="translate(730.500000, 409.500000) scale(-1, 1) translate(-730.500000, -409.500000) " cx="730.5" cy="409.5" r="6.5"></circle>
                    <circle id="Oval" fill="#F9ED69" transform="translate(732.000000, 379.000000) scale(-1, 1) translate(-732.000000, -379.000000) " cx="732" cy="379" r="7"></circle>
                    <circle id="Oval" fill="#6A2C70" transform="translate(760.500000, 409.500000) scale(-1, 1) translate(-760.500000, -409.500000) " cx="760.5" cy="409.5" r="6.5"></circle>
                    <circle id="Oval" fill="#F08A5D" transform="translate(762.000000, 379.000000) scale(-1, 1) translate(-762.000000, -379.000000) " cx="762" cy="379" r="7"></circle>
                    <circle id="Oval" fill="#F08A5D" transform="translate(790.500000, 409.500000) scale(-1, 1) translate(-790.500000, -409.500000) " cx="790.5" cy="409.5" r="6.5"></circle>
                    <circle id="Oval" fill="#F08A5D" transform="translate(792.000000, 379.000000) scale(-1, 1) translate(-792.000000, -379.000000) " cx="792" cy="379" r="7"></circle>
                    <circle id="Oval" fill="#F08A5D" transform="translate(1060.500000, 409.500000) scale(-1, 1) translate(-1060.500000, -409.500000) " cx="1060.5" cy="409.5" r="6.5"></circle>
                    <circle id="Oval" fill="#6A2C70" transform="translate(1062.000000, 379.000000) scale(-1, 1) translate(-1062.000000, -379.000000) " cx="1062" cy="379" r="7"></circle>
                    <circle id="Oval" fill="#F08A5D" transform="translate(1090.500000, 409.500000) scale(-1, 1) translate(-1090.500000, -409.500000) " cx="1090.5" cy="409.5" r="6.5"></circle>
                    <circle id="Oval" fill="#F08A5D" transform="translate(1092.000000, 379.000000) scale(-1, 1) translate(-1092.000000, -379.000000) " cx="1092" cy="379" r="7"></circle>
                    <circle id="Oval" fill="#B83B5E" transform="translate(1120.500000, 409.500000) scale(-1, 1) translate(-1120.500000, -409.500000) " cx="1120.5" cy="409.5" r="6.5"></circle>
                    <circle id="Oval" fill="#F08A5D" transform="translate(1122.000000, 379.000000) scale(-1, 1) translate(-1122.000000, -379.000000) " cx="1122" cy="379" r="7"></circle>
                    <circle id="Oval" fill="#F08A5D" transform="translate(1150.500000, 409.500000) scale(-1, 1) translate(-1150.500000, -409.500000) " cx="1150.5" cy="409.5" r="6.5"></circle>
                    <circle id="Oval" fill="#F9ED69" transform="translate(1152.000000, 379.000000) scale(-1, 1) translate(-1152.000000, -379.000000) " cx="1152" cy="379" r="7"></circle>
                    <circle id="Oval" fill="#F08A5D" transform="translate(1180.500000, 409.500000) scale(-1, 1) translate(-1180.500000, -409.500000) " cx="1180.5" cy="409.5" r="6.5"></circle>
                    <circle id="Oval" fill="#F08A5D" transform="translate(1182.000000, 379.000000) scale(-1, 1) translate(-1182.000000, -379.000000) " cx="1182" cy="379" r="7"></circle>
                    <circle id="Oval" fill="#F08A5D" transform="translate(970.500000, 409.500000) scale(-1, 1) translate(-970.500000, -409.500000) " cx="970.5" cy="409.5" r="6.5"></circle>
                    <circle id="Oval" fill="#F08A5D" transform="translate(972.000000, 379.000000) scale(-1, 1) translate(-972.000000, -379.000000) " cx="972" cy="379" r="7"></circle>
                    <circle id="Oval" fill="#F9ED69" transform="translate(1000.500000, 409.500000) scale(-1, 1) translate(-1000.500000, -409.500000) " cx="1000.5" cy="409.5" r="6.5"></circle>
                    <circle id="Oval" fill="#6A2C70" transform="translate(1002.000000, 379.000000) scale(-1, 1) translate(-1002.000000, -379.000000) " cx="1002" cy="379" r="7"></circle>
                    <circle id="Oval" fill="#F08A5D" transform="translate(1030.500000, 409.500000) scale(-1, 1) translate(-1030.500000, -409.500000) " cx="1030.5" cy="409.5" r="6.5"></circle>
                    <circle id="Oval" fill="#F08A5D" transform="translate(1032.000000, 379.000000) scale(-1, 1) translate(-1032.000000, -379.000000) " cx="1032" cy="379" r="7"></circle>
                    <circle id="Oval" fill="#F08A5D" transform="translate(820.500000, 409.500000) scale(-1, 1) translate(-820.500000, -409.500000) " cx="820.5" cy="409.5" r="6.5"></circle>
                    <circle id="Oval" fill="#F9ED69" transform="translate(822.000000, 379.000000) scale(-1, 1) translate(-822.000000, -379.000000) " cx="822" cy="379" r="7"></circle>
                    <circle id="Oval" fill="#F08A5D" transform="translate(850.500000, 409.500000) scale(-1, 1) translate(-850.500000, -409.500000) " cx="850.5" cy="409.5" r="6.5"></circle>
                    <circle id="Oval" fill="#F08A5D" transform="translate(852.000000, 379.000000) scale(-1, 1) translate(-852.000000, -379.000000) " cx="852" cy="379" r="7"></circle>
                    <circle id="Oval" fill="#F08A5D" transform="translate(880.500000, 409.500000) scale(-1, 1) translate(-880.500000, -409.500000) " cx="880.5" cy="409.5" r="6.5"></circle>
                    <circle id="Oval" fill="#F08A5D" transform="translate(882.000000, 379.000000) scale(-1, 1) translate(-882.000000, -379.000000) " cx="882" cy="379" r="7"></circle>
                    <circle id="Oval" fill="#F08A5D" transform="translate(910.500000, 409.500000) scale(-1, 1) translate(-910.500000, -409.500000) " cx="910.5" cy="409.5" r="6.5"></circle>
                    <circle id="Oval" fill="#B83B5E" transform="translate(912.000000, 379.000000) scale(-1, 1) translate(-912.000000, -379.000000) " cx="912" cy="379" r="7"></circle>
                    <circle id="Oval" fill="#F08A5D" transform="translate(940.500000, 409.500000) scale(-1, 1) translate(-940.500000, -409.500000) " cx="940.5" cy="409.5" r="6.5"></circle>
                    <circle id="Oval" fill="#F9ED69" transform="translate(1191.000000, 196.000000) scale(-1, -1) translate(-1191.000000, -196.000000) " cx="1191" cy="196" r="10"></circle>
                    <circle id="Oval" fill="#B83B5E" transform="translate(1209.000000, 502.000000) scale(-1, 1) translate(-1209.000000, -502.000000) " cx="1209" cy="502" r="5"></circle>
                    <circle id="Oval" fill="#F08A5D" transform="translate(1210.500000, 471.500000) scale(-1, 1) translate(-1210.500000, -471.500000) " cx="1210.5" cy="471.5" r="5.5"></circle>
                    <circle id="Oval" fill="#F9ED69" transform="translate(1212.000000, 440.000000) scale(-1, 1) translate(-1212.000000, -440.000000) " cx="1212" cy="440" r="6"></circle>
                    <circle id="Oval" fill="#F08A5D" transform="translate(1239.000000, 502.000000) scale(-1, 1) translate(-1239.000000, -502.000000) " cx="1239" cy="502" r="5"></circle>
                    <circle id="Oval" fill="#F08A5D" transform="translate(1240.500000, 471.500000) scale(-1, 1) translate(-1240.500000, -471.500000) " cx="1240.5" cy="471.5" r="5.5"></circle>
                    <circle id="Oval" fill="#F9ED69" transform="translate(1242.000000, 440.000000) scale(-1, 1) translate(-1242.000000, -440.000000) " cx="1242" cy="440" r="6"></circle>
                    <circle id="Oval" fill="#F08A5D" transform="translate(1269.000000, 502.000000) scale(-1, 1) translate(-1269.000000, -502.000000) " cx="1269" cy="502" r="5"></circle>
                    <circle id="Oval" fill="#F08A5D" transform="translate(1270.500000, 471.500000) scale(-1, 1) translate(-1270.500000, -471.500000) " cx="1270.5" cy="471.5" r="5.5"></circle>
                    <circle id="Oval" fill="#F08A5D" transform="translate(1272.000000, 440.000000) scale(-1, 1) translate(-1272.000000, -440.000000) " cx="1272" cy="440" r="6"></circle>
                    <circle id="Oval" fill="#F08A5D" transform="translate(1299.000000, 502.000000) scale(-1, 1) translate(-1299.000000, -502.000000) " cx="1299" cy="502" r="5"></circle>
                    <circle id="Oval" fill="#6A2C70" transform="translate(1300.500000, 471.500000) scale(-1, 1) translate(-1300.500000, -471.500000) " cx="1300.5" cy="471.5" r="5.5"></circle>
                    <circle id="Oval" fill="#F08A5D" transform="translate(1302.000000, 440.000000) scale(-1, 1) translate(-1302.000000, -440.000000) " cx="1302" cy="440" r="6"></circle>
                    <circle id="Oval" fill="#F08A5D" transform="translate(1329.000000, 502.000000) scale(-1, 1) translate(-1329.000000, -502.000000) " cx="1329" cy="502" r="5"></circle>
                    <circle id="Oval" fill="#F08A5D" transform="translate(1330.500000, 471.500000) scale(-1, 1) translate(-1330.500000, -471.500000) " cx="1330.5" cy="471.5" r="5.5"></circle>
                    <circle id="Oval" fill="#F08A5D" transform="translate(1332.000000, 440.000000) scale(-1, 1) translate(-1332.000000, -440.000000) " cx="1332" cy="440" r="6"></circle>
                    <circle id="Oval" fill="#F08A5D" transform="translate(1359.000000, 502.000000) scale(-1, 1) translate(-1359.000000, -502.000000) " cx="1359" cy="502" r="5"></circle>
                    <circle id="Oval" fill="#F9ED69" transform="translate(1360.500000, 471.500000) scale(-1, 1) translate(-1360.500000, -471.500000) " cx="1360.5" cy="471.5" r="5.5"></circle>
                    <circle id="Oval" fill="#F08A5D" transform="translate(1362.000000, 440.000000) scale(-1, 1) translate(-1362.000000, -440.000000) " cx="1362" cy="440" r="6"></circle>
                    <circle id="Oval" fill="#F08A5D" transform="translate(1389.000000, 502.000000) scale(-1, 1) translate(-1389.000000, -502.000000) " cx="1389" cy="502" r="5"></circle>
                    <circle id="Oval" fill="#F08A5D" transform="translate(1390.500000, 471.500000) scale(-1, 1) translate(-1390.500000, -471.500000) " cx="1390.5" cy="471.5" r="5.5"></circle>
                    <circle id="Oval" fill="#B83B5E" transform="translate(1392.000000, 440.000000) scale(-1, 1) translate(-1392.000000, -440.000000) " cx="1392" cy="440" r="6"></circle>
                    <circle id="Oval" fill="#F9ED69" transform="translate(1419.000000, 502.000000) scale(-1, 1) translate(-1419.000000, -502.000000) " cx="1419" cy="502" r="5"></circle>
                    <circle id="Oval" fill="#6A2C70" transform="translate(1420.500000, 471.500000) scale(-1, 1) translate(-1420.500000, -471.500000) " cx="1420.5" cy="471.5" r="5.5"></circle>
                    <circle id="Oval" fill="#F08A5D" transform="translate(1422.000000, 440.000000) scale(-1, 1) translate(-1422.000000, -440.000000) " cx="1422" cy="440" r="6"></circle>
                    <circle id="Oval" fill="#F9ED69" cx="1222.5" cy="226.5" r="9.5"></circle>
                    <circle id="Oval" fill="#B83B5E" cx="1456.5" cy="348.5" r="7.5"></circle>
                    <circle id="Oval" fill="#F9ED69" cx="1458" cy="318" r="8"></circle>
                    <circle id="Oval" fill="#F08A5D" cx="1459.5" cy="287.5" r="8.5"></circle>
                    <circle id="Oval" fill="#F08A5D" cx="1461" cy="257" r="9"></circle>
                    <circle id="Oval" fill="#F08A5D" cx="1462.5" cy="226.5" r="9.5"></circle>
                    <circle id="Oval" fill="#F08A5D" cx="1426.5" cy="348.5" r="7.5"></circle>
                    <circle id="Oval" fill="#F08A5D" cx="1428" cy="318" r="8"></circle>
                    <circle id="Oval" fill="#F08A5D" cx="1429.5" cy="287.5" r="8.5"></circle>
                    <circle id="Oval" fill="#F08A5D" cx="1431" cy="257" r="9"></circle>
                    <circle id="Oval" fill="#F08A5D" cx="1432.5" cy="226.5" r="9.5"></circle>
                    <circle id="Oval" fill="#6A2C70" cx="1396.5" cy="348.5" r="7.5"></circle>
                    <circle id="Oval" fill="#F08A5D" cx="1398" cy="318" r="8"></circle>
                    <circle id="Oval" fill="#F08A5D" cx="1399.5" cy="287.5" r="8.5"></circle>
                    <circle id="Oval" fill="#F9ED69" cx="1401" cy="257" r="9"></circle>
                    <circle id="Oval" fill="#6A2C70" cx="1402.5" cy="226.5" r="9.5"></circle>
                    <circle id="Oval" fill="#F08A5D" cx="1366.5" cy="348.5" r="7.5"></circle>
                    <circle id="Oval" fill="#F08A5D" cx="1368" cy="318" r="8"></circle>
                    <circle id="Oval" fill="#B83B5E" cx="1369.5" cy="287.5" r="8.5"></circle>
                    <circle id="Oval" fill="#F08A5D" cx="1371" cy="257" r="9"></circle>
                    <circle id="Oval" fill="#F08A5D" cx="1372.5" cy="226.5" r="9.5"></circle>
                    <circle id="Oval" fill="#F9ED69" cx="1336.5" cy="348.5" r="7.5"></circle>
                    <circle id="Oval" fill="#6A2C70" cx="1338" cy="318" r="8"></circle>
                    <circle id="Oval" fill="#F08A5D" cx="1339.5" cy="287.5" r="8.5"></circle>
                    <circle id="Oval" fill="#F08A5D" cx="1341" cy="257" r="9"></circle>
                    <circle id="Oval" fill="#F9ED69" cx="1342.5" cy="226.5" r="9.5"></circle>
                    <circle id="Oval" fill="#F08A5D" cx="1306.5" cy="348.5" r="7.5"></circle>
                    <circle id="Oval" fill="#F08A5D" cx="1308" cy="318" r="8"></circle>
                    <circle id="Oval" fill="#F08A5D" cx="1309.5" cy="287.5" r="8.5"></circle>
                    <circle id="Oval" fill="#F08A5D" cx="1311" cy="257" r="9"></circle>
                    <circle id="Oval" fill="#F08A5D" cx="1312.5" cy="226.5" r="9.5"></circle>
                    <circle id="Oval" fill="#F08A5D" cx="1276.5" cy="348.5" r="7.5"></circle>
                    <circle id="Oval" fill="#6A2C70" cx="1278" cy="318" r="8"></circle>
                    <circle id="Oval" fill="#F9ED69" cx="1279.5" cy="287.5" r="8.5"></circle>
                    <circle id="Oval" fill="#F08A5D" cx="1281" cy="257" r="9"></circle>
                    <circle id="Oval" fill="#F08A5D" cx="1282.5" cy="226.5" r="9.5"></circle>
                    <circle id="Oval" fill="#6A2C70" cx="1246.5" cy="348.5" r="7.5"></circle>
                    <circle id="Oval" fill="#F08A5D" cx="1248" cy="318" r="8"></circle>
                    <circle id="Oval" fill="#F08A5D" cx="1249.5" cy="287.5" r="8.5"></circle>
                    <circle id="Oval" fill="#F08A5D" cx="1251" cy="257" r="9"></circle>
                    <circle id="Oval" fill="#B83B5E" cx="1252.5" cy="226.5" r="9.5"></circle>
                    <circle id="Oval" fill="#F08A5D" cx="1216.5" cy="348.5" r="7.5"></circle>
                    <circle id="Oval" fill="#B83B5E" cx="1218" cy="318" r="8"></circle>
                    <circle id="Oval" fill="#6A2C70" cx="1219.5" cy="287.5" r="8.5"></circle>
                    <circle id="Oval" fill="#F08A5D" cx="1221" cy="257" r="9"></circle>
                    <circle id="Oval" fill="#F08A5D" transform="translate(1213.500000, 409.500000) scale(-1, 1) translate(-1213.500000, -409.500000) " cx="1213.5" cy="409.5" r="6.5"></circle>
                    <circle id="Oval" fill="#F08A5D" transform="translate(1215.000000, 379.000000) scale(-1, 1) translate(-1215.000000, -379.000000) " cx="1215" cy="379" r="7"></circle>
                    <circle id="Oval" fill="#6A2C70" transform="translate(1243.500000, 409.500000) scale(-1, 1) translate(-1243.500000, -409.500000) " cx="1243.5" cy="409.5" r="6.5"></circle>
                    <circle id="Oval" fill="#F08A5D" transform="translate(1245.000000, 379.000000) scale(-1, 1) translate(-1245.000000, -379.000000) " cx="1245" cy="379" r="7"></circle>
                    <circle id="Oval" fill="#B83B5E" transform="translate(1273.500000, 409.500000) scale(-1, 1) translate(-1273.500000, -409.500000) " cx="1273.5" cy="409.5" r="6.5"></circle>
                    <circle id="Oval" fill="#F08A5D" transform="translate(1275.000000, 379.000000) scale(-1, 1) translate(-1275.000000, -379.000000) " cx="1275" cy="379" r="7"></circle>
                    <circle id="Oval" fill="#F08A5D" transform="translate(1303.500000, 409.500000) scale(-1, 1) translate(-1303.500000, -409.500000) " cx="1303.5" cy="409.5" r="6.5"></circle>
                    <circle id="Oval" fill="#F08A5D" transform="translate(1305.000000, 379.000000) scale(-1, 1) translate(-1305.000000, -379.000000) " cx="1305" cy="379" r="7"></circle>
                    <circle id="Oval" fill="#F08A5D" transform="translate(1333.500000, 409.500000) scale(-1, 1) translate(-1333.500000, -409.500000) " cx="1333.5" cy="409.5" r="6.5"></circle>
                    <circle id="Oval" fill="#F9ED69" transform="translate(1335.000000, 379.000000) scale(-1, 1) translate(-1335.000000, -379.000000) " cx="1335" cy="379" r="7"></circle>
                    <circle id="Oval" fill="#6A2C70" transform="translate(1363.500000, 409.500000) scale(-1, 1) translate(-1363.500000, -409.500000) " cx="1363.5" cy="409.5" r="6.5"></circle>
                    <circle id="Oval" fill="#F08A5D" transform="translate(1365.000000, 379.000000) scale(-1, 1) translate(-1365.000000, -379.000000) " cx="1365" cy="379" r="7"></circle>
                    <circle id="Oval" fill="#F08A5D" transform="translate(1393.500000, 409.500000) scale(-1, 1) translate(-1393.500000, -409.500000) " cx="1393.5" cy="409.5" r="6.5"></circle>
                    <circle id="Oval" fill="#F08A5D" transform="translate(1395.000000, 379.000000) scale(-1, 1) translate(-1395.000000, -379.000000) " cx="1395" cy="379" r="7"></circle>
                    <circle id="Oval" fill="#F08A5D" transform="translate(1423.500000, 409.500000) scale(-1, 1) translate(-1423.500000, -409.500000) " cx="1423.5" cy="409.5" r="6.5"></circle>
                    <circle id="Oval" fill="#F9ED69" transform="translate(1425.000000, 379.000000) scale(-1, 1) translate(-1425.000000, -379.000000) " cx="1425" cy="379" r="7"></circle>
                    <circle id="Oval" fill="#F08A5D" transform="translate(1225.500000, 165.500000) scale(-1, -1) translate(-1225.500000, -165.500000) " cx="1225.5" cy="165.5" r="10.5"></circle>
                    <circle id="Oval" fill="#F08A5D" transform="translate(1224.000000, 196.000000) scale(-1, -1) translate(-1224.000000, -196.000000) " cx="1224" cy="196" r="10"></circle>
                    <circle id="Oval" fill="#6A2C70" transform="translate(1255.500000, 165.500000) scale(-1, -1) translate(-1255.500000, -165.500000) " cx="1255.5" cy="165.5" r="10.5"></circle>
                    <circle id="Oval" fill="#F08A5D" transform="translate(1254.000000, 196.000000) scale(-1, -1) translate(-1254.000000, -196.000000) " cx="1254" cy="196" r="10"></circle>
                    <circle id="Oval" fill="#F08A5D" transform="translate(1287.000000, 135.000000) scale(-1, -1) translate(-1287.000000, -135.000000) " cx="1287" cy="135" r="11"></circle>
                    <circle id="Oval" fill="#B83B5E" transform="translate(1285.500000, 165.500000) scale(-1, -1) translate(-1285.500000, -165.500000) " cx="1285.5" cy="165.5" r="10.5"></circle>
                    <circle id="Oval" fill="#F08A5D" transform="translate(1284.000000, 196.000000) scale(-1, -1) translate(-1284.000000, -196.000000) " cx="1284" cy="196" r="10"></circle>
                    <circle id="Oval" fill="#6A2C70" transform="translate(1318.500000, 104.500000) scale(-1, -1) translate(-1318.500000, -104.500000) " cx="1318.5" cy="104.5" r="11.5"></circle>
                    <circle id="Oval" fill="#F08A5D" transform="translate(1317.000000, 135.000000) scale(-1, -1) translate(-1317.000000, -135.000000) " cx="1317" cy="135" r="11"></circle>
                    <circle id="Oval" fill="#F08A5D" transform="translate(1315.500000, 165.500000) scale(-1, -1) translate(-1315.500000, -165.500000) " cx="1315.5" cy="165.5" r="10.5"></circle>
                    <circle id="Oval" fill="#F08A5D" transform="translate(1314.000000, 196.000000) scale(-1, -1) translate(-1314.000000, -196.000000) " cx="1314" cy="196" r="10"></circle>
                    <circle id="Oval" fill="#F08A5D" transform="translate(1348.500000, 104.500000) scale(-1, -1) translate(-1348.500000, -104.500000) " cx="1348.5" cy="104.5" r="11.5"></circle>
                    <circle id="Oval" fill="#F08A5D" transform="translate(1347.000000, 135.000000) scale(-1, -1) translate(-1347.000000, -135.000000) " cx="1347" cy="135" r="11"></circle>
                    <circle id="Oval" fill="#F08A5D" transform="translate(1345.500000, 165.500000) scale(-1, -1) translate(-1345.500000, -165.500000) " cx="1345.5" cy="165.5" r="10.5"></circle>
                    <circle id="Oval" fill="#F9ED69" transform="translate(1344.000000, 196.000000) scale(-1, -1) translate(-1344.000000, -196.000000) " cx="1344" cy="196" r="10"></circle>
                    <circle id="Oval" fill="#F08A5D" transform="translate(1380.000000, 74.000000) scale(-1, -1) translate(-1380.000000, -74.000000) " cx="1380" cy="74" r="12"></circle>
                    <circle id="Oval" fill="#F9ED69" transform="translate(1378.500000, 104.500000) scale(-1, -1) translate(-1378.500000, -104.500000) " cx="1378.5" cy="104.5" r="11.5"></circle>
                    <circle id="Oval" fill="#F08A5D" transform="translate(1377.000000, 135.000000) scale(-1, -1) translate(-1377.000000, -135.000000) " cx="1377" cy="135" r="11"></circle>
                    <circle id="Oval" fill="#6A2C70" transform="translate(1375.500000, 165.500000) scale(-1, -1) translate(-1375.500000, -165.500000) " cx="1375.5" cy="165.5" r="10.5"></circle>
                    <circle id="Oval" fill="#F08A5D" transform="translate(1374.000000, 196.000000) scale(-1, -1) translate(-1374.000000, -196.000000) " cx="1374" cy="196" r="10"></circle>
                    <circle id="Oval" fill="#F08A5D" transform="translate(1410.000000, 74.000000) scale(-1, -1) translate(-1410.000000, -74.000000) " cx="1410" cy="74" r="12"></circle>
                    <circle id="Oval" fill="#F08A5D" transform="translate(1408.500000, 104.500000) scale(-1, -1) translate(-1408.500000, -104.500000) " cx="1408.5" cy="104.5" r="11.5"></circle>
                    <circle id="Oval" fill="#B83B5E" transform="translate(1407.000000, 135.000000) scale(-1, -1) translate(-1407.000000, -135.000000) " cx="1407" cy="135" r="11"></circle>
                    <circle id="Oval" fill="#F08A5D" transform="translate(1405.500000, 165.500000) scale(-1, -1) translate(-1405.500000, -165.500000) " cx="1405.5" cy="165.5" r="10.5"></circle>
                    <circle id="Oval" fill="#F08A5D" transform="translate(1404.000000, 196.000000) scale(-1, -1) translate(-1404.000000, -196.000000) " cx="1404" cy="196" r="10"></circle>
                    <circle id="Oval" fill="#F9ED69" transform="translate(1440.000000, 74.000000) scale(-1, -1) translate(-1440.000000, -74.000000) " cx="1440" cy="74" r="12"></circle>
                    <circle id="Oval" fill="#F08A5D" transform="translate(1438.500000, 104.500000) scale(-1, -1) translate(-1438.500000, -104.500000) " cx="1438.5" cy="104.5" r="11.5"></circle>
                    <circle id="Oval" fill="#F08A5D" transform="translate(1437.000000, 135.000000) scale(-1, -1) translate(-1437.000000, -135.000000) " cx="1437" cy="135" r="11"></circle>
                    <circle id="Oval" fill="#F08A5D" transform="translate(1435.500000, 165.500000) scale(-1, -1) translate(-1435.500000, -165.500000) " cx="1435.5" cy="165.5" r="10.5"></circle>
                    <circle id="Oval" fill="#6A2C70" transform="translate(1434.000000, 196.000000) scale(-1, -1) translate(-1434.000000, -196.000000) " cx="1434" cy="196" r="10"></circle>
                    <circle id="Oval" fill="#F08A5D" transform="translate(1470.000000, 74.000000) scale(-1, -1) translate(-1470.000000, -74.000000) " cx="1470" cy="74" r="12"></circle>
                    <circle id="Oval" fill="#F08A5D" transform="translate(1468.500000, 104.500000) scale(-1, -1) translate(-1468.500000, -104.500000) " cx="1468.5" cy="104.5" r="11.5"></circle>
                    <circle id="Oval" fill="#F08A5D" transform="translate(1467.000000, 135.000000) scale(-1, -1) translate(-1467.000000, -135.000000) " cx="1467" cy="135" r="11"></circle>
                    <circle id="Oval" fill="#F08A5D" transform="translate(1465.500000, 165.500000) scale(-1, -1) translate(-1465.500000, -165.500000) " cx="1465.5" cy="165.5" r="10.5"></circle>
                    <circle id="Oval" fill="#F08A5D" transform="translate(1464.000000, 196.000000) scale(-1, -1) translate(-1464.000000, -196.000000) " cx="1464" cy="196" r="10"></circle>
                    <circle id="Oval" fill="#F9ED69" transform="translate(1471.500000, 43.500000) scale(1, -1) translate(-1471.500000, -43.500000) " cx="1471.5" cy="43.5" r="12.5"></circle>
                    <circle id="Oval" fill="#F08A5D" transform="translate(1441.500000, 43.500000) scale(1, -1) translate(-1441.500000, -43.500000) " cx="1441.5" cy="43.5" r="12.5"></circle>
                    <circle id="Oval" fill="#6A2C70" transform="translate(1411.500000, 43.500000) scale(1, -1) translate(-1411.500000, -43.500000) " cx="1411.5" cy="43.5" r="12.5"></circle>
                    <circle id="Oval" fill="#F08A5D" transform="translate(1473.000000, 13.000000) scale(1, -1) translate(-1473.000000, -13.000000) " cx="1473" cy="13" r="13"></circle>
                    <circle id="Oval" fill="#B83B5E" transform="translate(5.000000, 502.000000) scale(-1, 1) translate(-5.000000, -502.000000) " cx="5" cy="502" r="5"></circle>
                    <circle id="Oval" fill="#F08A5D" transform="translate(6.500000, 471.500000) scale(-1, 1) translate(-6.500000, -471.500000) " cx="6.5" cy="471.5" r="5.5"></circle>
                    <circle id="Oval" fill="#F9ED69" transform="translate(8.000000, 440.000000) scale(-1, 1) translate(-8.000000, -440.000000) " cx="8" cy="440" r="6"></circle>
                    <circle id="Oval" fill="#F08A5D" transform="translate(35.000000, 502.000000) scale(-1, 1) translate(-35.000000, -502.000000) " cx="35" cy="502" r="5"></circle>
                    <circle id="Oval" fill="#F08A5D" transform="translate(36.500000, 471.500000) scale(-1, 1) translate(-36.500000, -471.500000) " cx="36.5" cy="471.5" r="5.5"></circle>
                    <circle id="Oval" fill="#F9ED69" transform="translate(38.000000, 440.000000) scale(-1, 1) translate(-38.000000, -440.000000) " cx="38" cy="440" r="6"></circle>
                    <circle id="Oval" fill="#F08A5D" transform="translate(65.000000, 502.000000) scale(-1, 1) translate(-65.000000, -502.000000) " cx="65" cy="502" r="5"></circle>
                    <circle id="Oval" fill="#F08A5D" transform="translate(66.500000, 471.500000) scale(-1, 1) translate(-66.500000, -471.500000) " cx="66.5" cy="471.5" r="5.5"></circle>
                    <circle id="Oval" fill="#F08A5D" transform="translate(68.000000, 440.000000) scale(-1, 1) translate(-68.000000, -440.000000) " cx="68" cy="440" r="6"></circle>
                    <circle id="Oval" fill="#F08A5D" transform="translate(95.000000, 502.000000) scale(-1, 1) translate(-95.000000, -502.000000) " cx="95" cy="502" r="5"></circle>
                    <circle id="Oval" fill="#6A2C70" transform="translate(96.500000, 471.500000) scale(-1, 1) translate(-96.500000, -471.500000) " cx="96.5" cy="471.5" r="5.5"></circle>
                    <circle id="Oval" fill="#F08A5D" transform="translate(98.000000, 440.000000) scale(-1, 1) translate(-98.000000, -440.000000) " cx="98" cy="440" r="6"></circle>
                    <circle id="Oval" fill="#F08A5D" transform="translate(125.000000, 502.000000) scale(-1, 1) translate(-125.000000, -502.000000) " cx="125" cy="502" r="5"></circle>
                    <circle id="Oval" fill="#F08A5D" transform="translate(126.500000, 471.500000) scale(-1, 1) translate(-126.500000, -471.500000) " cx="126.5" cy="471.5" r="5.5"></circle>
                    <circle id="Oval" fill="#F08A5D" transform="translate(128.000000, 440.000000) scale(-1, 1) translate(-128.000000, -440.000000) " cx="128" cy="440" r="6"></circle>
                    <circle id="Oval" fill="#F08A5D" transform="translate(155.000000, 502.000000) scale(-1, 1) translate(-155.000000, -502.000000) " cx="155" cy="502" r="5"></circle>
                    <circle id="Oval" fill="#F9ED69" transform="translate(156.500000, 471.500000) scale(-1, 1) translate(-156.500000, -471.500000) " cx="156.5" cy="471.5" r="5.5"></circle>
                    <circle id="Oval" fill="#F08A5D" transform="translate(158.000000, 440.000000) scale(-1, 1) translate(-158.000000, -440.000000) " cx="158" cy="440" r="6"></circle>
                    <circle id="Oval" fill="#F08A5D" transform="translate(185.000000, 502.000000) scale(-1, 1) translate(-185.000000, -502.000000) " cx="185" cy="502" r="5"></circle>
                    <circle id="Oval" fill="#F08A5D" transform="translate(186.500000, 471.500000) scale(-1, 1) translate(-186.500000, -471.500000) " cx="186.5" cy="471.5" r="5.5"></circle>
                    <circle id="Oval" fill="#B83B5E" transform="translate(188.000000, 440.000000) scale(-1, 1) translate(-188.000000, -440.000000) " cx="188" cy="440" r="6"></circle>
                    <circle id="Oval" fill="#F9ED69" transform="translate(455.000000, 502.000000) scale(-1, 1) translate(-455.000000, -502.000000) " cx="455" cy="502" r="5"></circle>
                    <circle id="Oval" fill="#F08A5D" transform="translate(456.500000, 471.500000) scale(-1, 1) translate(-456.500000, -471.500000) " cx="456.5" cy="471.5" r="5.5"></circle>
                    <circle id="Oval" fill="#F08A5D" transform="translate(458.000000, 440.000000) scale(-1, 1) translate(-458.000000, -440.000000) " cx="458" cy="440" r="6"></circle>
                    <circle id="Oval" fill="#F08A5D" transform="translate(485.000000, 502.000000) scale(-1, 1) translate(-485.000000, -502.000000) " cx="485" cy="502" r="5"></circle>
                    <circle id="Oval" fill="#F08A5D" transform="translate(486.500000, 471.500000) scale(-1, 1) translate(-486.500000, -471.500000) " cx="486.5" cy="471.5" r="5.5"></circle>
                    <circle id="Oval" fill="#F08A5D" transform="translate(488.000000, 440.000000) scale(-1, 1) translate(-488.000000, -440.000000) " cx="488" cy="440" r="6"></circle>
                    <circle id="Oval" fill="#F08A5D" transform="translate(515.000000, 502.000000) scale(-1, 1) translate(-515.000000, -502.000000) " cx="515" cy="502" r="5"></circle>
                    <circle id="Oval" fill="#6A2C70" transform="translate(516.500000, 471.500000) scale(-1, 1) translate(-516.500000, -471.500000) " cx="516.5" cy="471.5" r="5.5"></circle>
                    <circle id="Oval" fill="#F08A5D" transform="translate(518.000000, 440.000000) scale(-1, 1) translate(-518.000000, -440.000000) " cx="518" cy="440" r="6"></circle>
                    <circle id="Oval" fill="#F08A5D" transform="translate(545.000000, 502.000000) scale(-1, 1) translate(-545.000000, -502.000000) " cx="545" cy="502" r="5"></circle>
                    <circle id="Oval" fill="#F08A5D" transform="translate(546.500000, 471.500000) scale(-1, 1) translate(-546.500000, -471.500000) " cx="546.5" cy="471.5" r="5.5"></circle>
                    <circle id="Oval" fill="#F08A5D" transform="translate(548.000000, 440.000000) scale(-1, 1) translate(-548.000000, -440.000000) " cx="548" cy="440" r="6"></circle>
                    <circle id="Oval" fill="#B83B5E" transform="translate(575.000000, 502.000000) scale(-1, 1) translate(-575.000000, -502.000000) " cx="575" cy="502" r="5"></circle>
                    <circle id="Oval" fill="#F9ED69" transform="translate(576.500000, 471.500000) scale(-1, 1) translate(-576.500000, -471.500000) " cx="576.5" cy="471.5" r="5.5"></circle>
                    <circle id="Oval" fill="#F08A5D" transform="translate(578.000000, 440.000000) scale(-1, 1) translate(-578.000000, -440.000000) " cx="578" cy="440" r="6"></circle>
                    <circle id="Oval" fill="#F08A5D" transform="translate(365.000000, 502.000000) scale(-1, 1) translate(-365.000000, -502.000000) " cx="365" cy="502" r="5"></circle>
                    <circle id="Oval" fill="#F08A5D" transform="translate(366.500000, 471.500000) scale(-1, 1) translate(-366.500000, -471.500000) " cx="366.5" cy="471.5" r="5.5"></circle>
                    <circle id="Oval" fill="#F08A5D" transform="translate(368.000000, 440.000000) scale(-1, 1) translate(-368.000000, -440.000000) " cx="368" cy="440" r="6"></circle>
                    <circle id="Oval" fill="#6A2C70" transform="translate(395.000000, 502.000000) scale(-1, 1) translate(-395.000000, -502.000000) " cx="395" cy="502" r="5"></circle>
                    <circle id="Oval" fill="#F08A5D" transform="translate(396.500000, 471.500000) scale(-1, 1) translate(-396.500000, -471.500000) " cx="396.5" cy="471.5" r="5.5"></circle>
                    <circle id="Oval" fill="#F08A5D" transform="translate(398.000000, 440.000000) scale(-1, 1) translate(-398.000000, -440.000000) " cx="398" cy="440" r="6"></circle>
                    <circle id="Oval" fill="#F08A5D" transform="translate(425.000000, 502.000000) scale(-1, 1) translate(-425.000000, -502.000000) " cx="425" cy="502" r="5"></circle>
                    <circle id="Oval" fill="#F08A5D" transform="translate(426.500000, 471.500000) scale(-1, 1) translate(-426.500000, -471.500000) " cx="426.5" cy="471.5" r="5.5"></circle>
                    <circle id="Oval" fill="#B83B5E" transform="translate(428.000000, 440.000000) scale(-1, 1) translate(-428.000000, -440.000000) " cx="428" cy="440" r="6"></circle>
                    <circle id="Oval" fill="#F9ED69" transform="translate(215.000000, 502.000000) scale(-1, 1) translate(-215.000000, -502.000000) " cx="215" cy="502" r="5"></circle>
                    <circle id="Oval" fill="#6A2C70" transform="translate(216.500000, 471.500000) scale(-1, 1) translate(-216.500000, -471.500000) " cx="216.5" cy="471.5" r="5.5"></circle>
                    <circle id="Oval" fill="#F08A5D" transform="translate(218.000000, 440.000000) scale(-1, 1) translate(-218.000000, -440.000000) " cx="218" cy="440" r="6"></circle>
                    <circle id="Oval" fill="#F08A5D" transform="translate(245.000000, 502.000000) scale(-1, 1) translate(-245.000000, -502.000000) " cx="245" cy="502" r="5"></circle>
                    <circle id="Oval" fill="#F08A5D" transform="translate(246.500000, 471.500000) scale(-1, 1) translate(-246.500000, -471.500000) " cx="246.5" cy="471.5" r="5.5"></circle>
                    <circle id="Oval" fill="#F08A5D" transform="translate(248.000000, 440.000000) scale(-1, 1) translate(-248.000000, -440.000000) " cx="248" cy="440" r="6"></circle>
                    <circle id="Oval" fill="#F08A5D" transform="translate(275.000000, 502.000000) scale(-1, 1) translate(-275.000000, -502.000000) " cx="275" cy="502" r="5"></circle>
                    <circle id="Oval" fill="#6A2C70" transform="translate(276.500000, 471.500000) scale(-1, 1) translate(-276.500000, -471.500000) " cx="276.5" cy="471.5" r="5.5"></circle>
                    <circle id="Oval" fill="#F9ED69" transform="translate(278.000000, 440.000000) scale(-1, 1) translate(-278.000000, -440.000000) " cx="278" cy="440" r="6"></circle>
                    <circle id="Oval" fill="#6A2C70" transform="translate(305.000000, 502.000000) scale(-1, 1) translate(-305.000000, -502.000000) " cx="305" cy="502" r="5"></circle>
                    <circle id="Oval" fill="#F08A5D" transform="translate(306.500000, 471.500000) scale(-1, 1) translate(-306.500000, -471.500000) " cx="306.5" cy="471.5" r="5.5"></circle>
                    <circle id="Oval" fill="#F08A5D" transform="translate(308.000000, 440.000000) scale(-1, 1) translate(-308.000000, -440.000000) " cx="308" cy="440" r="6"></circle>
                    <circle id="Oval" fill="#F08A5D" transform="translate(335.000000, 502.000000) scale(-1, 1) translate(-335.000000, -502.000000) " cx="335" cy="502" r="5"></circle>
                    <circle id="Oval" fill="#B83B5E" transform="translate(336.500000, 471.500000) scale(-1, 1) translate(-336.500000, -471.500000) " cx="336.5" cy="471.5" r="5.5"></circle>
                    <circle id="Oval" fill="#6A2C70" transform="translate(338.000000, 440.000000) scale(-1, 1) translate(-338.000000, -440.000000) " cx="338" cy="440" r="6"></circle>
                    <circle id="Oval" fill="#F08A5D" cx="12.5" cy="348.5" r="7.5"></circle>
                    <circle id="Oval" fill="#B83B5E" cx="14" cy="318" r="8"></circle>
                    <circle id="Oval" fill="#6A2C70" cx="15.5" cy="287.5" r="8.5"></circle>
                    <circle id="Oval" fill="#F08A5D" cx="17" cy="257" r="9"></circle>
                    <circle id="Oval" fill="#B83B5E" cx="582.5" cy="348.5" r="7.5"></circle>
                    <circle id="Oval" fill="#F08A5D" cx="552.5" cy="348.5" r="7.5"></circle>
                    <circle id="Oval" fill="#F08A5D" cx="522.5" cy="348.5" r="7.5"></circle>
                    <circle id="Oval" fill="#F08A5D" cx="492.5" cy="348.5" r="7.5"></circle>
                    <circle id="Oval" fill="#F08A5D" cx="462.5" cy="348.5" r="7.5"></circle>
                    <circle id="Oval" fill="#F08A5D" cx="432.5" cy="348.5" r="7.5"></circle>
                    <circle id="Oval" fill="#F08A5D" cx="402.5" cy="348.5" r="7.5"></circle>
                    <circle id="Oval" fill="#F9ED69" cx="372.5" cy="348.5" r="7.5"></circle>
                    <circle id="Oval" fill="#F08A5D" cx="342.5" cy="348.5" r="7.5"></circle>
                    <circle id="Oval" fill="#F08A5D" cx="312.5" cy="348.5" r="7.5"></circle>
                    <circle id="Oval" fill="#F08A5D" cx="282.5" cy="348.5" r="7.5"></circle>
                    <circle id="Oval" fill="#B83B5E" cx="252.5" cy="348.5" r="7.5"></circle>
                    <circle id="Oval" fill="#F08A5D" cx="222.5" cy="348.5" r="7.5"></circle>
                    <circle id="Oval" fill="#6A2C70" cx="192.5" cy="348.5" r="7.5"></circle>
                    <circle id="Oval" fill="#B83B5E" cx="615" cy="318" r="8"></circle>
                    <circle id="Oval" fill="#F08A5D" cx="554" cy="318" r="8"></circle>
                    <circle id="Oval" fill="#F08A5D" cx="524" cy="318" r="8"></circle>
                    <circle id="Oval" fill="#6A2C70" cx="494" cy="318" r="8"></circle>
                    <circle id="Oval" fill="#F08A5D" cx="464" cy="318" r="8"></circle>
                    <circle id="Oval" fill="#F9ED69" cx="434" cy="318" r="8"></circle>
                    <circle id="Oval" fill="#F08A5D" cx="404" cy="318" r="8"></circle>
                    <circle id="Oval" fill="#F08A5D" cx="374" cy="318" r="8"></circle>
                    <circle id="Oval" fill="#F08A5D" cx="344" cy="318" r="8"></circle>
                    <circle id="Oval" fill="#6A2C70" cx="314" cy="318" r="8"></circle>
                    <circle id="Oval" fill="#F08A5D" cx="284" cy="318" r="8"></circle>
                    <circle id="Oval" fill="#F9ED69" cx="254" cy="318" r="8"></circle>
                    <circle id="Oval" fill="#F08A5D" cx="224" cy="318" r="8"></circle>
                    <circle id="Oval" fill="#F08A5D" cx="194" cy="318" r="8"></circle>
                    <circle id="Oval" fill="#F08A5D" transform="translate(9.500000, 409.500000) scale(-1, 1) translate(-9.500000, -409.500000) " cx="9.5" cy="409.5" r="6.5"></circle>
                    <circle id="Oval" fill="#F08A5D" transform="translate(11.000000, 379.000000) scale(-1, 1) translate(-11.000000, -379.000000) " cx="11" cy="379" r="7"></circle>
                    <circle id="Oval" fill="#6A2C70" transform="translate(39.500000, 409.500000) scale(-1, 1) translate(-39.500000, -409.500000) " cx="39.5" cy="409.5" r="6.5"></circle>
                    <circle id="Oval" fill="#B83B5E" transform="translate(69.500000, 409.500000) scale(-1, 1) translate(-69.500000, -409.500000) " cx="69.5" cy="409.5" r="6.5"></circle>
                    <circle id="Oval" fill="#F08A5D" transform="translate(99.500000, 409.500000) scale(-1, 1) translate(-99.500000, -409.500000) " cx="99.5" cy="409.5" r="6.5"></circle>
                    <circle id="Oval" fill="#F08A5D" transform="translate(129.500000, 409.500000) scale(-1, 1) translate(-129.500000, -409.500000) " cx="129.5" cy="409.5" r="6.5"></circle>
                    <circle id="Oval" fill="#6A2C70" transform="translate(159.500000, 409.500000) scale(-1, 1) translate(-159.500000, -409.500000) " cx="159.5" cy="409.5" r="6.5"></circle>
                    <circle id="Oval" fill="#F08A5D" transform="translate(189.500000, 409.500000) scale(-1, 1) translate(-189.500000, -409.500000) " cx="189.5" cy="409.5" r="6.5"></circle>
                    <circle id="Oval" fill="#F08A5D" transform="translate(459.500000, 409.500000) scale(-1, 1) translate(-459.500000, -409.500000) " cx="459.5" cy="409.5" r="6.5"></circle>
                    <circle id="Oval" fill="#6A2C70" transform="translate(461.000000, 379.000000) scale(-1, 1) translate(-461.000000, -379.000000) " cx="461" cy="379" r="7"></circle>
                    <circle id="Oval" fill="#F08A5D" transform="translate(489.500000, 409.500000) scale(-1, 1) translate(-489.500000, -409.500000) " cx="489.5" cy="409.5" r="6.5"></circle>
                    <circle id="Oval" fill="#F08A5D" transform="translate(491.000000, 379.000000) scale(-1, 1) translate(-491.000000, -379.000000) " cx="491" cy="379" r="7"></circle>
                    <circle id="Oval" fill="#B83B5E" transform="translate(519.500000, 409.500000) scale(-1, 1) translate(-519.500000, -409.500000) " cx="519.5" cy="409.5" r="6.5"></circle>
                    <circle id="Oval" fill="#F08A5D" transform="translate(521.000000, 379.000000) scale(-1, 1) translate(-521.000000, -379.000000) " cx="521" cy="379" r="7"></circle>
                    <circle id="Oval" fill="#F08A5D" transform="translate(549.500000, 409.500000) scale(-1, 1) translate(-549.500000, -409.500000) " cx="549.5" cy="409.5" r="6.5"></circle>
                    <circle id="Oval" fill="#F9ED69" transform="translate(551.000000, 379.000000) scale(-1, 1) translate(-551.000000, -379.000000) " cx="551" cy="379" r="7"></circle>
                    <circle id="Oval" fill="#F08A5D" transform="translate(579.500000, 409.500000) scale(-1, 1) translate(-579.500000, -409.500000) " cx="579.5" cy="409.5" r="6.5"></circle>
                    <circle id="Oval" fill="#F08A5D" transform="translate(581.000000, 379.000000) scale(-1, 1) translate(-581.000000, -379.000000) " cx="581" cy="379" r="7"></circle>
                    <circle id="Oval" fill="#F08A5D" transform="translate(369.500000, 409.500000) scale(-1, 1) translate(-369.500000, -409.500000) " cx="369.5" cy="409.5" r="6.5"></circle>
                    <circle id="Oval" fill="#F9ED69" transform="translate(399.500000, 409.500000) scale(-1, 1) translate(-399.500000, -409.500000) " cx="399.5" cy="409.5" r="6.5"></circle>
                    <circle id="Oval" fill="#F08A5D" transform="translate(429.500000, 409.500000) scale(-1, 1) translate(-429.500000, -409.500000) " cx="429.5" cy="409.5" r="6.5"></circle>
                    <circle id="Oval" fill="#F08A5D" transform="translate(431.000000, 379.000000) scale(-1, 1) translate(-431.000000, -379.000000) " cx="431" cy="379" r="7"></circle>
                    <circle id="Oval" fill="#F08A5D" transform="translate(219.500000, 409.500000) scale(-1, 1) translate(-219.500000, -409.500000) " cx="219.5" cy="409.5" r="6.5"></circle>
                    <circle id="Oval" fill="#F08A5D" transform="translate(249.500000, 409.500000) scale(-1, 1) translate(-249.500000, -409.500000) " cx="249.5" cy="409.5" r="6.5"></circle>
                    <circle id="Oval" fill="#F08A5D" transform="translate(279.500000, 409.500000) scale(-1, 1) translate(-279.500000, -409.500000) " cx="279.5" cy="409.5" r="6.5"></circle>
                    <circle id="Oval" fill="#F08A5D" transform="translate(309.500000, 409.500000) scale(-1, 1) translate(-309.500000, -409.500000) " cx="309.5" cy="409.5" r="6.5"></circle>
                    <circle id="Oval" fill="#F9ED69" transform="translate(341.000000, 379.000000) scale(-1, 1) translate(-341.000000, -379.000000) " cx="341" cy="379" r="7"></circle>
                    <circle id="Oval" fill="#F08A5D" transform="translate(191.000000, 379.000000) scale(-1, 1) translate(-191.000000, -379.000000) " cx="191" cy="379" r="7"></circle>
                    <circle id="Oval" fill="#F08A5D" transform="translate(371.000000, 379.000000) scale(-1, 1) translate(-371.000000, -379.000000) " cx="371" cy="379" r="7"></circle>
                    <circle id="Oval" fill="#6A2C70" transform="translate(401.000000, 379.000000) scale(-1, 1) translate(-401.000000, -379.000000) " cx="401" cy="379" r="7"></circle>
                    <circle id="Oval" fill="#F9ED69" transform="translate(221.000000, 379.000000) scale(-1, 1) translate(-221.000000, -379.000000) " cx="221" cy="379" r="7"></circle>
                    <circle id="Oval" fill="#F08A5D" transform="translate(251.000000, 379.000000) scale(-1, 1) translate(-251.000000, -379.000000) " cx="251" cy="379" r="7"></circle>
                    <circle id="Oval" fill="#F08A5D" transform="translate(281.000000, 379.000000) scale(-1, 1) translate(-281.000000, -379.000000) " cx="281" cy="379" r="7"></circle>
                    <circle id="Oval" fill="#B83B5E" transform="translate(311.000000, 379.000000) scale(-1, 1) translate(-311.000000, -379.000000) " cx="311" cy="379" r="7"></circle>
                    <circle id="Oval" fill="#F08A5D" transform="translate(339.500000, 409.500000) scale(-1, 1) translate(-339.500000, -409.500000) " cx="339.5" cy="409.5" r="6.5"></circle>
                    <circle id="Oval" fill="#F9ED69" cx="18.5" cy="226.5" r="9.5"></circle>
                    <circle id="Oval" fill="#F08A5D" cx="162.5" cy="348.5" r="7.5"></circle>
                    <circle id="Oval" fill="#F08A5D" cx="164" cy="318" r="8"></circle>
                    <circle id="Oval" fill="#B83B5E" cx="165.5" cy="287.5" r="8.5"></circle>
                    <circle id="Oval" fill="#F08A5D" cx="167" cy="257" r="9"></circle>
                    <circle id="Oval" fill="#F9ED69" cx="132.5" cy="348.5" r="7.5"></circle>
                    <circle id="Oval" fill="#6A2C70" cx="134" cy="318" r="8"></circle>
                    <circle id="Oval" fill="#F08A5D" cx="135.5" cy="287.5" r="8.5"></circle>
                    <circle id="Oval" fill="#F08A5D" cx="137" cy="257" r="9"></circle>
                    <circle id="Oval" fill="#F9ED69" cx="138.5" cy="226.5" r="9.5"></circle>
                    <circle id="Oval" fill="#F08A5D" cx="102.5" cy="348.5" r="7.5"></circle>
                    <circle id="Oval" fill="#F08A5D" cx="104" cy="318" r="8"></circle>
                    <circle id="Oval" fill="#F08A5D" cx="105.5" cy="287.5" r="8.5"></circle>
                    <circle id="Oval" fill="#F08A5D" cx="107" cy="257" r="9"></circle>
                    <circle id="Oval" fill="#F08A5D" cx="108.5" cy="226.5" r="9.5"></circle>
                    <circle id="Oval" fill="#F08A5D" cx="72.5" cy="348.5" r="7.5"></circle>
                    <circle id="Oval" fill="#6A2C70" cx="74" cy="318" r="8"></circle>
                    <circle id="Oval" fill="#F9ED69" cx="75.5" cy="287.5" r="8.5"></circle>
                    <circle id="Oval" fill="#F08A5D" cx="77" cy="257" r="9"></circle>
                    <circle id="Oval" fill="#F08A5D" cx="78.5" cy="226.5" r="9.5"></circle>
                    <circle id="Oval" fill="#6A2C70" cx="42.5" cy="348.5" r="7.5"></circle>
                    <circle id="Oval" fill="#F08A5D" cx="44" cy="318" r="8"></circle>
                    <circle id="Oval" fill="#F08A5D" cx="45.5" cy="287.5" r="8.5"></circle>
                    <circle id="Oval" fill="#F08A5D" cx="47" cy="257" r="9"></circle>
                    <circle id="Oval" fill="#B83B5E" cx="48.5" cy="226.5" r="9.5"></circle>
                    <circle id="Oval" fill="#F08A5D" transform="translate(41.000000, 379.000000) scale(-1, 1) translate(-41.000000, -379.000000) " cx="41" cy="379" r="7"></circle>
                    <circle id="Oval" fill="#F08A5D" transform="translate(71.000000, 379.000000) scale(-1, 1) translate(-71.000000, -379.000000) " cx="71" cy="379" r="7"></circle>
                    <circle id="Oval" fill="#F08A5D" transform="translate(101.000000, 379.000000) scale(-1, 1) translate(-101.000000, -379.000000) " cx="101" cy="379" r="7"></circle>
                    <circle id="Oval" fill="#F9ED69" transform="translate(131.000000, 379.000000) scale(-1, 1) translate(-131.000000, -379.000000) " cx="131" cy="379" r="7"></circle>
                    <circle id="Oval" fill="#F08A5D" transform="translate(161.000000, 379.000000) scale(-1, 1) translate(-161.000000, -379.000000) " cx="161" cy="379" r="7"></circle>
                    <circle id="Oval" fill="#B83B5E" transform="translate(26.000000, 74.000000) scale(-1, -1) translate(-26.000000, -74.000000) " cx="26" cy="74" r="12"></circle>
                    <circle id="Oval" fill="#F08A5D" transform="translate(24.500000, 104.500000) scale(-1, -1) translate(-24.500000, -104.500000) " cx="24.5" cy="104.5" r="11.5"></circle>
                    <circle id="Oval" fill="#F9ED69" transform="translate(23.000000, 135.000000) scale(-1, -1) translate(-23.000000, -135.000000) " cx="23" cy="135" r="11"></circle>
                    <circle id="Oval" fill="#F08A5D" transform="translate(21.500000, 165.500000) scale(-1, -1) translate(-21.500000, -165.500000) " cx="21.5" cy="165.5" r="10.5"></circle>
                    <circle id="Oval" fill="#F08A5D" transform="translate(20.000000, 196.000000) scale(-1, -1) translate(-20.000000, -196.000000) " cx="20" cy="196" r="10"></circle>
                    <circle id="Oval" fill="#F08A5D" transform="translate(56.000000, 74.000000) scale(-1, -1) translate(-56.000000, -74.000000) " cx="56" cy="74" r="12"></circle>
                    <circle id="Oval" fill="#F08A5D" transform="translate(54.500000, 104.500000) scale(-1, -1) translate(-54.500000, -104.500000) " cx="54.5" cy="104.5" r="11.5"></circle>
                    <circle id="Oval" fill="#F9ED69" transform="translate(53.000000, 135.000000) scale(-1, -1) translate(-53.000000, -135.000000) " cx="53" cy="135" r="11"></circle>
                    <circle id="Oval" fill="#6A2C70" transform="translate(51.500000, 165.500000) scale(-1, -1) translate(-51.500000, -165.500000) " cx="51.5" cy="165.5" r="10.5"></circle>
                    <circle id="Oval" fill="#F08A5D" transform="translate(50.000000, 196.000000) scale(-1, -1) translate(-50.000000, -196.000000) " cx="50" cy="196" r="10"></circle>
                    <circle id="Oval" fill="#F08A5D" transform="translate(86.000000, 74.000000) scale(-1, -1) translate(-86.000000, -74.000000) " cx="86" cy="74" r="12"></circle>
                    <circle id="Oval" fill="#F08A5D" transform="translate(84.500000, 104.500000) scale(-1, -1) translate(-84.500000, -104.500000) " cx="84.5" cy="104.5" r="11.5"></circle>
                    <circle id="Oval" fill="#F08A5D" transform="translate(83.000000, 135.000000) scale(-1, -1) translate(-83.000000, -135.000000) " cx="83" cy="135" r="11"></circle>
                    <circle id="Oval" fill="#B83B5E" transform="translate(81.500000, 165.500000) scale(-1, -1) translate(-81.500000, -165.500000) " cx="81.5" cy="165.5" r="10.5"></circle>
                    <circle id="Oval" fill="#F08A5D" transform="translate(80.000000, 196.000000) scale(-1, -1) translate(-80.000000, -196.000000) " cx="80" cy="196" r="10"></circle>
                    <circle id="Oval" fill="#F08A5D" transform="translate(116.000000, 74.000000) scale(-1, -1) translate(-116.000000, -74.000000) " cx="116" cy="74" r="12"></circle>
                    <circle id="Oval" fill="#6A2C70" transform="translate(114.500000, 104.500000) scale(-1, -1) translate(-114.500000, -104.500000) " cx="114.5" cy="104.5" r="11.5"></circle>
                    <circle id="Oval" fill="#F08A5D" transform="translate(113.000000, 135.000000) scale(-1, -1) translate(-113.000000, -135.000000) " cx="113" cy="135" r="11"></circle>
                    <circle id="Oval" fill="#F08A5D" transform="translate(111.500000, 165.500000) scale(-1, -1) translate(-111.500000, -165.500000) " cx="111.5" cy="165.5" r="10.5"></circle>
                    <circle id="Oval" fill="#F08A5D" transform="translate(110.000000, 196.000000) scale(-1, -1) translate(-110.000000, -196.000000) " cx="110" cy="196" r="10"></circle>
                    <circle id="Oval" fill="#F08A5D" transform="translate(146.000000, 74.000000) scale(-1, -1) translate(-146.000000, -74.000000) " cx="146" cy="74" r="12"></circle>
                    <circle id="Oval" fill="#F08A5D" transform="translate(144.500000, 104.500000) scale(-1, -1) translate(-144.500000, -104.500000) " cx="144.5" cy="104.5" r="11.5"></circle>
                    <circle id="Oval" fill="#F08A5D" transform="translate(143.000000, 135.000000) scale(-1, -1) translate(-143.000000, -135.000000) " cx="143" cy="135" r="11"></circle>
                    <circle id="Oval" fill="#F08A5D" transform="translate(141.500000, 165.500000) scale(-1, -1) translate(-141.500000, -165.500000) " cx="141.5" cy="165.5" r="10.5"></circle>
                    <circle id="Oval" fill="#F9ED69" transform="translate(140.000000, 196.000000) scale(-1, -1) translate(-140.000000, -196.000000) " cx="140" cy="196" r="10"></circle>
                    <circle id="Oval" fill="#F08A5D" transform="translate(87.500000, 43.500000) scale(1, -1) translate(-87.500000, -43.500000) " cx="87.5" cy="43.5" r="12.5"></circle>
                    <circle id="Oval" fill="#F9ED69" transform="translate(57.500000, 43.500000) scale(1, -1) translate(-57.500000, -43.500000) " cx="57.5" cy="43.5" r="12.5"></circle>
                    <circle id="Oval" fill="#F08A5D" transform="translate(29.000000, 13.000000) scale(1, -1) translate(-29.000000, -13.000000) " cx="29" cy="13" r="13"></circle>
                    <circle id="Oval" fill="#F08A5D" transform="translate(27.500000, 43.500000) scale(1, -1) translate(-27.500000, -43.500000) " cx="27.5" cy="43.5" r="12.5"></circle>
                    <circle id="Oval" fill="#F9ED69" transform="translate(174.500000, 104.500000) scale(-1, -1) translate(-174.500000, -104.500000) " cx="174.5" cy="104.5" r="11.5"></circle>
                    <circle id="Oval" fill="#F08A5D" transform="translate(173.000000, 135.000000) scale(-1, -1) translate(-173.000000, -135.000000) " cx="173" cy="135" r="11"></circle>
                    <circle id="Oval" fill="#6A2C70" transform="translate(171.500000, 165.500000) scale(-1, -1) translate(-171.500000, -165.500000) " cx="171.5" cy="165.5" r="10.5"></circle>
                    <circle id="Oval" fill="#F08A5D" transform="translate(170.000000, 196.000000) scale(-1, -1) translate(-170.000000, -196.000000) " cx="170" cy="196" r="10"></circle>
                    <circle id="Oval" fill="#B83B5E" transform="translate(203.000000, 135.000000) scale(-1, -1) translate(-203.000000, -135.000000) " cx="203" cy="135" r="11"></circle>
                    <circle id="Oval" fill="#F08A5D" transform="translate(201.500000, 165.500000) scale(-1, -1) translate(-201.500000, -165.500000) " cx="201.5" cy="165.5" r="10.5"></circle>
                    <circle id="Oval" fill="#F08A5D" transform="translate(200.000000, 196.000000) scale(-1, -1) translate(-200.000000, -196.000000) " cx="200" cy="196" r="10"></circle>
                    <circle id="Oval" fill="#F08A5D" transform="translate(233.000000, 135.000000) scale(-1, -1) translate(-233.000000, -135.000000) " cx="233" cy="135" r="11"></circle>
                    <circle id="Oval" fill="#F08A5D" transform="translate(231.500000, 165.500000) scale(-1, -1) translate(-231.500000, -165.500000) " cx="231.5" cy="165.5" r="10.5"></circle>
                    <circle id="Oval" fill="#6A2C70" transform="translate(230.000000, 196.000000) scale(-1, -1) translate(-230.000000, -196.000000) " cx="230" cy="196" r="10"></circle>
                    <circle id="Oval" fill="#F08A5D" transform="translate(261.500000, 165.500000) scale(-1, -1) translate(-261.500000, -165.500000) " cx="261.5" cy="165.5" r="10.5"></circle>
                    <circle id="Oval" fill="#F08A5D" transform="translate(260.000000, 196.000000) scale(-1, -1) translate(-260.000000, -196.000000) " cx="260" cy="196" r="10"></circle>
                    <circle id="Oval" fill="#B83B5E" transform="translate(291.500000, 165.500000) scale(-1, -1) translate(-291.500000, -165.500000) " cx="291.5" cy="165.5" r="10.5"></circle>
                    <circle id="Oval" fill="#F08A5D" transform="translate(290.000000, 196.000000) scale(-1, -1) translate(-290.000000, -196.000000) " cx="290" cy="196" r="10"></circle>
                    <circle id="Oval" fill="#F9ED69" transform="translate(320.000000, 196.000000) scale(-1, -1) translate(-320.000000, -196.000000) " cx="320" cy="196" r="10"></circle>
                    <circle id="Oval" fill="#F08A5D" cx="525.5" cy="287.5" r="8.5"></circle>
                    <circle id="Oval" fill="#F08A5D" cx="435.5" cy="287.5" r="8.5"></circle>
                    <circle id="Oval" fill="#6A2C70" cx="437" cy="257" r="9"></circle>
                    <circle id="Oval" fill="#B83B5E" cx="405.5" cy="287.5" r="8.5"></circle>
                    <circle id="Oval" fill="#F08A5D" cx="407" cy="257" r="9"></circle>
                    <circle id="Oval" fill="#F08A5D" cx="375.5" cy="287.5" r="8.5"></circle>
                    <circle id="Oval" fill="#F08A5D" cx="377" cy="257" r="9"></circle>
                    <circle id="Oval" fill="#6A2C70" cx="378.5" cy="226.5" r="9.5"></circle>
                    <circle id="Oval" fill="#F08A5D" cx="345.5" cy="287.5" r="8.5"></circle>
                    <circle id="Oval" fill="#F08A5D" cx="347" cy="257" r="9"></circle>
                    <circle id="Oval" fill="#F08A5D" cx="348.5" cy="226.5" r="9.5"></circle>
                    <circle id="Oval" fill="#F08A5D" cx="315.5" cy="287.5" r="8.5"></circle>
                    <circle id="Oval" fill="#B83B5E" cx="317" cy="257" r="9"></circle>
                    <circle id="Oval" fill="#F08A5D" cx="318.5" cy="226.5" r="9.5"></circle>
                    <circle id="Oval" fill="#F08A5D" cx="285.5" cy="287.5" r="8.5"></circle>
                    <circle id="Oval" fill="#F08A5D" cx="287" cy="257" r="9"></circle>
                    <circle id="Oval" fill="#F9ED69" cx="288.5" cy="226.5" r="9.5"></circle>
                    <circle id="Oval" fill="#F08A5D" cx="255.5" cy="287.5" r="8.5"></circle>
                    <circle id="Oval" fill="#F08A5D" cx="257" cy="257" r="9"></circle>
                    <circle id="Oval" fill="#F08A5D" cx="258.5" cy="226.5" r="9.5"></circle>
                    <circle id="Oval" fill="#F08A5D" cx="225.5" cy="287.5" r="8.5"></circle>
                    <circle id="Oval" fill="#F08A5D" cx="227" cy="257" r="9"></circle>
                    <circle id="Oval" fill="#F08A5D" cx="228.5" cy="226.5" r="9.5"></circle>
                    <circle id="Oval" fill="#F08A5D" cx="195.5" cy="287.5" r="8.5"></circle>
                    <circle id="Oval" fill="#F9ED69" cx="197" cy="257" r="9"></circle>
                    <circle id="Oval" fill="#6A2C70" cx="198.5" cy="226.5" r="9.5"></circle>
                    <circle id="Oval" fill="#F08A5D" cx="168.5" cy="226.5" r="9.5"></circle>
                    <circle id="Oval" fill="#F08A5D" cx="465.5" cy="287.5" r="8.5"></circle>
                </g>
                <rect id="Rectangle" fill="url(#linearGradient-1)" x="0" y="0" width="1440" height="707"></rect>
                <rect id="Rectangle-Copy" fill="url(#linearGradient-1)" transform="translate(782.000000, 353.500000) scale(-1, 1) translate(-782.000000, -353.500000) " x="62" y="0" width="1440" height="707"></rect>
            </g>
        </g>
    </g>
</svg>