<?xml version="1.0" encoding="UTF-8"?>
<svg width="555px" height="3px" viewBox="0 0 555 3" version="1.1" xmlns="http://www.w3.org/2000/svg" xmlns:xlink="http://www.w3.org/1999/xlink">
    <!-- Generator: Sketch 40.2 (33826) - http://www.bohemiancoding.com/sketch -->
    <title>dots-line</title>
    <desc>Created with Sketch.</desc>
    <defs></defs>
    <g id="Page-1" stroke="none" stroke-width="1" fill="none" fill-rule="evenodd">
        <g id="P-8" transform="translate(-902.000000, -2869.000000)">
            <g id="dots-line" transform="translate(902.000000, 2869.000000)">
                <ellipse id="Oval" fill="#F08A5D" transform="translate(98.223022, 1.500000) scale(-1, -1) translate(-98.223022, -1.500000) " cx="98.2230216" cy="1.5" rx="1.5971223" ry="1.5"></ellipse>
                <ellipse id="Oval" fill="#F08A5D" transform="translate(122.179856, 1.500000) scale(-1, -1) translate(-122.179856, -1.500000) " cx="122.179856" cy="1.5" rx="1.5971223" ry="1.5"></ellipse>
                <ellipse id="Oval" fill="#F08A5D" transform="translate(146.136691, 1.500000) scale(-1, -1) translate(-146.136691, -1.500000) " cx="146.136691" cy="1.5" rx="1.5971223" ry="1.5"></ellipse>
                <ellipse id="Oval" fill="#6A2C70" transform="translate(170.093525, 1.500000) scale(-1, -1) translate(-170.093525, -1.500000) " cx="170.093525" cy="1.5" rx="1.5971223" ry="1.5"></ellipse>
                <ellipse id="Oval" fill="#F08A5D" transform="translate(194.050360, 1.500000) scale(-1, -1) translate(-194.050360, -1.500000) " cx="194.05036" cy="1.5" rx="1.5971223" ry="1.5"></ellipse>
                <ellipse id="Oval" fill="#F9ED69" transform="translate(218.007194, 1.500000) scale(-1, -1) translate(-218.007194, -1.500000) " cx="218.007194" cy="1.5" rx="1.5971223" ry="1.5"></ellipse>
                <ellipse id="Oval" fill="#F08A5D" transform="translate(241.964029, 1.500000) scale(-1, -1) translate(-241.964029, -1.500000) " cx="241.964029" cy="1.5" rx="1.5971223" ry="1.5"></ellipse>
                <ellipse id="Oval" fill="#F08A5D" transform="translate(457.575540, 1.500000) scale(-1, -1) translate(-457.575540, -1.500000) " cx="457.57554" cy="1.5" rx="1.5971223" ry="1.5"></ellipse>
                <ellipse id="Oval" fill="#F08A5D" transform="translate(481.532374, 1.500000) scale(-1, -1) translate(-481.532374, -1.500000) " cx="481.532374" cy="1.5" rx="1.5971223" ry="1.5"></ellipse>
                <ellipse id="Oval" fill="#6A2C70" transform="translate(505.489209, 1.500000) scale(-1, -1) translate(-505.489209, -1.500000) " cx="505.489209" cy="1.5" rx="1.5971223" ry="1.5"></ellipse>
                <ellipse id="Oval" fill="#F08A5D" transform="translate(529.446043, 1.500000) scale(-1, -1) translate(-529.446043, -1.500000) " cx="529.446043" cy="1.5" rx="1.5971223" ry="1.5"></ellipse>
                <ellipse id="Oval" fill="#F9ED69" transform="translate(553.402878, 1.500000) scale(-1, -1) translate(-553.402878, -1.500000) " cx="553.402878" cy="1.5" rx="1.5971223" ry="1.5"></ellipse>
                <ellipse id="Oval" fill="#F08A5D" transform="translate(385.705036, 1.500000) scale(-1, -1) translate(-385.705036, -1.500000) " cx="385.705036" cy="1.5" rx="1.5971223" ry="1.5"></ellipse>
                <ellipse id="Oval" fill="#F08A5D" transform="translate(409.661871, 1.500000) scale(-1, -1) translate(-409.661871, -1.500000) " cx="409.661871" cy="1.5" rx="1.5971223" ry="1.5"></ellipse>
                <ellipse id="Oval" fill="#F08A5D" transform="translate(433.618705, 1.500000) scale(-1, -1) translate(-433.618705, -1.500000) " cx="433.618705" cy="1.5" rx="1.5971223" ry="1.5"></ellipse>
                <ellipse id="Oval" fill="#6A2C70" transform="translate(265.920863, 1.500000) scale(-1, -1) translate(-265.920863, -1.500000) " cx="265.920863" cy="1.5" rx="1.5971223" ry="1.5"></ellipse>
                <ellipse id="Oval" fill="#F08A5D" transform="translate(289.877698, 1.500000) scale(-1, -1) translate(-289.877698, -1.500000) " cx="289.877698" cy="1.5" rx="1.5971223" ry="1.5"></ellipse>
                <ellipse id="Oval" fill="#6A2C70" transform="translate(313.834532, 1.500000) scale(-1, -1) translate(-313.834532, -1.500000) " cx="313.834532" cy="1.5" rx="1.5971223" ry="1.5"></ellipse>
                <ellipse id="Oval" fill="#F08A5D" transform="translate(337.791367, 1.500000) scale(-1, -1) translate(-337.791367, -1.500000) " cx="337.791367" cy="1.5" rx="1.5971223" ry="1.5"></ellipse>
                <ellipse id="Oval" fill="#B83B5E" transform="translate(361.748201, 1.500000) scale(-1, -1) translate(-361.748201, -1.500000) " cx="361.748201" cy="1.5" rx="1.5971223" ry="1.5"></ellipse>
                <ellipse id="Oval" fill="#F08A5D" transform="translate(1.597122, 1.500000) scale(-1, -1) translate(-1.597122, -1.500000) " cx="1.5971223" cy="1.5" rx="1.5971223" ry="1.5"></ellipse>
                <ellipse id="Oval" fill="#6A2C70" transform="translate(25.553957, 1.500000) scale(-1, -1) translate(-25.553957, -1.500000) " cx="25.5539568" cy="1.5" rx="1.5971223" ry="1.5"></ellipse>
                <ellipse id="Oval" fill="#F08A5D" transform="translate(49.510791, 1.500000) scale(-1, -1) translate(-49.510791, -1.500000) " cx="49.5107914" cy="1.5" rx="1.5971223" ry="1.5"></ellipse>
                <ellipse id="Oval" fill="#F9ED69" transform="translate(73.467626, 1.500000) scale(-1, -1) translate(-73.467626, -1.500000) " cx="73.4676259" cy="1.5" rx="1.5971223" ry="1.5"></ellipse>
            </g>
        </g>
    </g>
</svg>