<?xml version="1.0" encoding="UTF-8"?>
<svg width="707px" height="34px" viewBox="0 0 707 34" version="1.1" xmlns="http://www.w3.org/2000/svg" xmlns:xlink="http://www.w3.org/1999/xlink">
    <!-- Generator: Sketch 40.2 (33826) - http://www.bohemiancoding.com/sketch -->
    <title>dots-div</title>
    <desc>Created with Sketch.</desc>
    <defs></defs>
    <g id="Page-1" stroke="none" stroke-width="1" fill="none" fill-rule="evenodd">
        <g id="P-8" transform="translate(-806.000000, -1741.000000)">
            <g id="dots-div" transform="translate(806.000000, 1741.000000)">
                <g id="div" transform="translate(12.000000, 0.000000)">
                    <circle id="Oval" fill="#F08A5D" transform="translate(123.000000, 2.000000) scale(-1, 1) translate(-123.000000, -2.000000) " cx="123" cy="2" r="2"></circle>
                    <circle id="Oval" fill="#F08A5D" transform="translate(153.000000, 2.000000) scale(-1, 1) translate(-153.000000, -2.000000) " cx="153" cy="2" r="2"></circle>
                    <circle id="Oval" fill="#F08A5D" transform="translate(183.000000, 2.000000) scale(-1, 1) translate(-183.000000, -2.000000) " cx="183" cy="2" r="2"></circle>
                    <circle id="Oval" fill="#6A2C70" transform="translate(213.000000, 2.000000) scale(-1, 1) translate(-213.000000, -2.000000) " cx="213" cy="2" r="2"></circle>
                    <circle id="Oval" fill="#F08A5D" transform="translate(243.000000, 2.000000) scale(-1, 1) translate(-243.000000, -2.000000) " cx="243" cy="2" r="2"></circle>
                    <circle id="Oval" fill="#F9ED69" transform="translate(273.000000, 2.000000) scale(-1, 1) translate(-273.000000, -2.000000) " cx="273" cy="2" r="2"></circle>
                    <circle id="Oval" fill="#F08A5D" transform="translate(303.000000, 2.000000) scale(-1, 1) translate(-303.000000, -2.000000) " cx="303" cy="2" r="2"></circle>
                    <circle id="Oval" fill="#F08A5D" transform="translate(573.000000, 2.000000) scale(-1, 1) translate(-573.000000, -2.000000) " cx="573" cy="2" r="2"></circle>
                    <circle id="Oval" fill="#F08A5D" transform="translate(603.000000, 2.000000) scale(-1, 1) translate(-603.000000, -2.000000) " cx="603" cy="2" r="2"></circle>
                    <circle id="Oval" fill="#6A2C70" transform="translate(633.000000, 2.000000) scale(-1, 1) translate(-633.000000, -2.000000) " cx="633" cy="2" r="2"></circle>
                    <circle id="Oval" fill="#F08A5D" transform="translate(663.000000, 2.000000) scale(-1, 1) translate(-663.000000, -2.000000) " cx="663" cy="2" r="2"></circle>
                    <circle id="Oval" fill="#F9ED69" transform="translate(693.000000, 2.000000) scale(-1, 1) translate(-693.000000, -2.000000) " cx="693" cy="2" r="2"></circle>
                    <circle id="Oval" fill="#F08A5D" transform="translate(483.000000, 2.000000) scale(-1, 1) translate(-483.000000, -2.000000) " cx="483" cy="2" r="2"></circle>
                    <circle id="Oval" fill="#F08A5D" transform="translate(513.000000, 2.000000) scale(-1, 1) translate(-513.000000, -2.000000) " cx="513" cy="2" r="2"></circle>
                    <circle id="Oval" fill="#F08A5D" transform="translate(543.000000, 2.000000) scale(-1, 1) translate(-543.000000, -2.000000) " cx="543" cy="2" r="2"></circle>
                    <circle id="Oval" fill="#6A2C70" transform="translate(333.000000, 2.000000) scale(-1, 1) translate(-333.000000, -2.000000) " cx="333" cy="2" r="2"></circle>
                    <circle id="Oval" fill="#F08A5D" transform="translate(363.000000, 2.000000) scale(-1, 1) translate(-363.000000, -2.000000) " cx="363" cy="2" r="2"></circle>
                    <circle id="Oval" fill="#6A2C70" transform="translate(393.000000, 2.000000) scale(-1, 1) translate(-393.000000, -2.000000) " cx="393" cy="2" r="2"></circle>
                    <circle id="Oval" fill="#F08A5D" transform="translate(423.000000, 2.000000) scale(-1, 1) translate(-423.000000, -2.000000) " cx="423" cy="2" r="2"></circle>
                    <circle id="Oval" fill="#B83B5E" transform="translate(453.000000, 2.000000) scale(-1, 1) translate(-453.000000, -2.000000) " cx="453" cy="2" r="2"></circle>
                    <circle id="Oval" fill="#F08A5D" transform="translate(2.000000, 2.000000) scale(-1, 1) translate(-2.000000, -2.000000) " cx="2" cy="2" r="2"></circle>
                    <circle id="Oval" fill="#6A2C70" transform="translate(32.000000, 2.000000) scale(-1, 1) translate(-32.000000, -2.000000) " cx="32" cy="2" r="2"></circle>
                    <circle id="Oval" fill="#F08A5D" transform="translate(62.000000, 2.000000) scale(-1, 1) translate(-62.000000, -2.000000) " cx="62" cy="2" r="2"></circle>
                    <circle id="Oval" fill="#F9ED69" transform="translate(92.000000, 2.000000) scale(-1, 1) translate(-92.000000, -2.000000) " cx="92" cy="2" r="2"></circle>
                </g>
                <g id="div" transform="translate(347.500000, 12.000000) scale(-1, 1) translate(-347.500000, -12.000000) translate(0.000000, 10.000000)">
                    <circle id="Oval" fill="#F08A5D" transform="translate(123.000000, 2.000000) scale(-1, 1) translate(-123.000000, -2.000000) " cx="123" cy="2" r="2"></circle>
                    <circle id="Oval" fill="#F08A5D" transform="translate(153.000000, 2.000000) scale(-1, 1) translate(-153.000000, -2.000000) " cx="153" cy="2" r="2"></circle>
                    <circle id="Oval" fill="#F08A5D" transform="translate(183.000000, 2.000000) scale(-1, 1) translate(-183.000000, -2.000000) " cx="183" cy="2" r="2"></circle>
                    <circle id="Oval" fill="#6A2C70" transform="translate(213.000000, 2.000000) scale(-1, 1) translate(-213.000000, -2.000000) " cx="213" cy="2" r="2"></circle>
                    <circle id="Oval" fill="#F08A5D" transform="translate(243.000000, 2.000000) scale(-1, 1) translate(-243.000000, -2.000000) " cx="243" cy="2" r="2"></circle>
                    <circle id="Oval" fill="#F9ED69" transform="translate(273.000000, 2.000000) scale(-1, 1) translate(-273.000000, -2.000000) " cx="273" cy="2" r="2"></circle>
                    <circle id="Oval" fill="#F08A5D" transform="translate(303.000000, 2.000000) scale(-1, 1) translate(-303.000000, -2.000000) " cx="303" cy="2" r="2"></circle>
                    <circle id="Oval" fill="#F08A5D" transform="translate(573.000000, 2.000000) scale(-1, 1) translate(-573.000000, -2.000000) " cx="573" cy="2" r="2"></circle>
                    <circle id="Oval" fill="#F08A5D" transform="translate(603.000000, 2.000000) scale(-1, 1) translate(-603.000000, -2.000000) " cx="603" cy="2" r="2"></circle>
                    <circle id="Oval" fill="#6A2C70" transform="translate(633.000000, 2.000000) scale(-1, 1) translate(-633.000000, -2.000000) " cx="633" cy="2" r="2"></circle>
                    <circle id="Oval" fill="#F08A5D" transform="translate(663.000000, 2.000000) scale(-1, 1) translate(-663.000000, -2.000000) " cx="663" cy="2" r="2"></circle>
                    <circle id="Oval" fill="#F9ED69" transform="translate(693.000000, 2.000000) scale(-1, 1) translate(-693.000000, -2.000000) " cx="693" cy="2" r="2"></circle>
                    <circle id="Oval" fill="#F08A5D" transform="translate(483.000000, 2.000000) scale(-1, 1) translate(-483.000000, -2.000000) " cx="483" cy="2" r="2"></circle>
                    <circle id="Oval" fill="#F08A5D" transform="translate(513.000000, 2.000000) scale(-1, 1) translate(-513.000000, -2.000000) " cx="513" cy="2" r="2"></circle>
                    <circle id="Oval" fill="#F08A5D" transform="translate(543.000000, 2.000000) scale(-1, 1) translate(-543.000000, -2.000000) " cx="543" cy="2" r="2"></circle>
                    <circle id="Oval" fill="#6A2C70" transform="translate(333.000000, 2.000000) scale(-1, 1) translate(-333.000000, -2.000000) " cx="333" cy="2" r="2"></circle>
                    <circle id="Oval" fill="#F08A5D" transform="translate(363.000000, 2.000000) scale(-1, 1) translate(-363.000000, -2.000000) " cx="363" cy="2" r="2"></circle>
                    <circle id="Oval" fill="#6A2C70" transform="translate(393.000000, 2.000000) scale(-1, 1) translate(-393.000000, -2.000000) " cx="393" cy="2" r="2"></circle>
                    <circle id="Oval" fill="#F08A5D" transform="translate(423.000000, 2.000000) scale(-1, 1) translate(-423.000000, -2.000000) " cx="423" cy="2" r="2"></circle>
                    <circle id="Oval" fill="#B83B5E" transform="translate(453.000000, 2.000000) scale(-1, 1) translate(-453.000000, -2.000000) " cx="453" cy="2" r="2"></circle>
                    <circle id="Oval" fill="#F08A5D" transform="translate(2.000000, 2.000000) scale(-1, 1) translate(-2.000000, -2.000000) " cx="2" cy="2" r="2"></circle>
                    <circle id="Oval" fill="#6A2C70" transform="translate(32.000000, 2.000000) scale(-1, 1) translate(-32.000000, -2.000000) " cx="32" cy="2" r="2"></circle>
                    <circle id="Oval" fill="#F08A5D" transform="translate(62.000000, 2.000000) scale(-1, 1) translate(-62.000000, -2.000000) " cx="62" cy="2" r="2"></circle>
                    <circle id="Oval" fill="#F9ED69" transform="translate(92.000000, 2.000000) scale(-1, 1) translate(-92.000000, -2.000000) " cx="92" cy="2" r="2"></circle>
                </g>
                <g id="div" transform="translate(359.500000, 22.000000) scale(-1, 1) translate(-359.500000, -22.000000) translate(12.000000, 20.000000)">
                    <circle id="Oval" fill="#F08A5D" transform="translate(123.000000, 2.000000) scale(-1, 1) translate(-123.000000, -2.000000) " cx="123" cy="2" r="2"></circle>
                    <circle id="Oval" fill="#F08A5D" transform="translate(153.000000, 2.000000) scale(-1, 1) translate(-153.000000, -2.000000) " cx="153" cy="2" r="2"></circle>
                    <circle id="Oval" fill="#F08A5D" transform="translate(183.000000, 2.000000) scale(-1, 1) translate(-183.000000, -2.000000) " cx="183" cy="2" r="2"></circle>
                    <circle id="Oval" fill="#6A2C70" transform="translate(213.000000, 2.000000) scale(-1, 1) translate(-213.000000, -2.000000) " cx="213" cy="2" r="2"></circle>
                    <circle id="Oval" fill="#F08A5D" transform="translate(243.000000, 2.000000) scale(-1, 1) translate(-243.000000, -2.000000) " cx="243" cy="2" r="2"></circle>
                    <circle id="Oval" fill="#F9ED69" transform="translate(273.000000, 2.000000) scale(-1, 1) translate(-273.000000, -2.000000) " cx="273" cy="2" r="2"></circle>
                    <circle id="Oval" fill="#F08A5D" transform="translate(303.000000, 2.000000) scale(-1, 1) translate(-303.000000, -2.000000) " cx="303" cy="2" r="2"></circle>
                    <circle id="Oval" fill="#F08A5D" transform="translate(573.000000, 2.000000) scale(-1, 1) translate(-573.000000, -2.000000) " cx="573" cy="2" r="2"></circle>
                    <circle id="Oval" fill="#F08A5D" transform="translate(603.000000, 2.000000) scale(-1, 1) translate(-603.000000, -2.000000) " cx="603" cy="2" r="2"></circle>
                    <circle id="Oval" fill="#6A2C70" transform="translate(633.000000, 2.000000) scale(-1, 1) translate(-633.000000, -2.000000) " cx="633" cy="2" r="2"></circle>
                    <circle id="Oval" fill="#F08A5D" transform="translate(663.000000, 2.000000) scale(-1, 1) translate(-663.000000, -2.000000) " cx="663" cy="2" r="2"></circle>
                    <circle id="Oval" fill="#F9ED69" transform="translate(693.000000, 2.000000) scale(-1, 1) translate(-693.000000, -2.000000) " cx="693" cy="2" r="2"></circle>
                    <circle id="Oval" fill="#F08A5D" transform="translate(483.000000, 2.000000) scale(-1, 1) translate(-483.000000, -2.000000) " cx="483" cy="2" r="2"></circle>
                    <circle id="Oval" fill="#F08A5D" transform="translate(513.000000, 2.000000) scale(-1, 1) translate(-513.000000, -2.000000) " cx="513" cy="2" r="2"></circle>
                    <circle id="Oval" fill="#F08A5D" transform="translate(543.000000, 2.000000) scale(-1, 1) translate(-543.000000, -2.000000) " cx="543" cy="2" r="2"></circle>
                    <circle id="Oval" fill="#6A2C70" transform="translate(333.000000, 2.000000) scale(-1, 1) translate(-333.000000, -2.000000) " cx="333" cy="2" r="2"></circle>
                    <circle id="Oval" fill="#F08A5D" transform="translate(363.000000, 2.000000) scale(-1, 1) translate(-363.000000, -2.000000) " cx="363" cy="2" r="2"></circle>
                    <circle id="Oval" fill="#6A2C70" transform="translate(393.000000, 2.000000) scale(-1, 1) translate(-393.000000, -2.000000) " cx="393" cy="2" r="2"></circle>
                    <circle id="Oval" fill="#F08A5D" transform="translate(423.000000, 2.000000) scale(-1, 1) translate(-423.000000, -2.000000) " cx="423" cy="2" r="2"></circle>
                    <circle id="Oval" fill="#B83B5E" transform="translate(453.000000, 2.000000) scale(-1, 1) translate(-453.000000, -2.000000) " cx="453" cy="2" r="2"></circle>
                    <circle id="Oval" fill="#F08A5D" transform="translate(2.000000, 2.000000) scale(-1, 1) translate(-2.000000, -2.000000) " cx="2" cy="2" r="2"></circle>
                    <circle id="Oval" fill="#6A2C70" transform="translate(32.000000, 2.000000) scale(-1, 1) translate(-32.000000, -2.000000) " cx="32" cy="2" r="2"></circle>
                    <circle id="Oval" fill="#F08A5D" transform="translate(62.000000, 2.000000) scale(-1, 1) translate(-62.000000, -2.000000) " cx="62" cy="2" r="2"></circle>
                    <circle id="Oval" fill="#F9ED69" transform="translate(92.000000, 2.000000) scale(-1, 1) translate(-92.000000, -2.000000) " cx="92" cy="2" r="2"></circle>
                </g>
                <g id="div" transform="translate(2.000000, 30.000000)">
                    <circle id="Oval" fill="#F08A5D" transform="translate(123.000000, 2.000000) scale(-1, 1) translate(-123.000000, -2.000000) " cx="123" cy="2" r="2"></circle>
                    <circle id="Oval" fill="#F08A5D" transform="translate(153.000000, 2.000000) scale(-1, 1) translate(-153.000000, -2.000000) " cx="153" cy="2" r="2"></circle>
                    <circle id="Oval" fill="#F08A5D" transform="translate(183.000000, 2.000000) scale(-1, 1) translate(-183.000000, -2.000000) " cx="183" cy="2" r="2"></circle>
                    <circle id="Oval" fill="#6A2C70" transform="translate(213.000000, 2.000000) scale(-1, 1) translate(-213.000000, -2.000000) " cx="213" cy="2" r="2"></circle>
                    <circle id="Oval" fill="#F08A5D" transform="translate(243.000000, 2.000000) scale(-1, 1) translate(-243.000000, -2.000000) " cx="243" cy="2" r="2"></circle>
                    <circle id="Oval" fill="#F9ED69" transform="translate(273.000000, 2.000000) scale(-1, 1) translate(-273.000000, -2.000000) " cx="273" cy="2" r="2"></circle>
                    <circle id="Oval" fill="#F08A5D" transform="translate(303.000000, 2.000000) scale(-1, 1) translate(-303.000000, -2.000000) " cx="303" cy="2" r="2"></circle>
                    <circle id="Oval" fill="#F08A5D" transform="translate(573.000000, 2.000000) scale(-1, 1) translate(-573.000000, -2.000000) " cx="573" cy="2" r="2"></circle>
                    <circle id="Oval" fill="#F08A5D" transform="translate(603.000000, 2.000000) scale(-1, 1) translate(-603.000000, -2.000000) " cx="603" cy="2" r="2"></circle>
                    <circle id="Oval" fill="#6A2C70" transform="translate(633.000000, 2.000000) scale(-1, 1) translate(-633.000000, -2.000000) " cx="633" cy="2" r="2"></circle>
                    <circle id="Oval" fill="#F08A5D" transform="translate(663.000000, 2.000000) scale(-1, 1) translate(-663.000000, -2.000000) " cx="663" cy="2" r="2"></circle>
                    <circle id="Oval" fill="#F9ED69" transform="translate(693.000000, 2.000000) scale(-1, 1) translate(-693.000000, -2.000000) " cx="693" cy="2" r="2"></circle>
                    <circle id="Oval" fill="#F08A5D" transform="translate(483.000000, 2.000000) scale(-1, 1) translate(-483.000000, -2.000000) " cx="483" cy="2" r="2"></circle>
                    <circle id="Oval" fill="#F08A5D" transform="translate(513.000000, 2.000000) scale(-1, 1) translate(-513.000000, -2.000000) " cx="513" cy="2" r="2"></circle>
                    <circle id="Oval" fill="#F08A5D" transform="translate(543.000000, 2.000000) scale(-1, 1) translate(-543.000000, -2.000000) " cx="543" cy="2" r="2"></circle>
                    <circle id="Oval" fill="#6A2C70" transform="translate(333.000000, 2.000000) scale(-1, 1) translate(-333.000000, -2.000000) " cx="333" cy="2" r="2"></circle>
                    <circle id="Oval" fill="#F08A5D" transform="translate(363.000000, 2.000000) scale(-1, 1) translate(-363.000000, -2.000000) " cx="363" cy="2" r="2"></circle>
                    <circle id="Oval" fill="#6A2C70" transform="translate(393.000000, 2.000000) scale(-1, 1) translate(-393.000000, -2.000000) " cx="393" cy="2" r="2"></circle>
                    <circle id="Oval" fill="#F08A5D" transform="translate(423.000000, 2.000000) scale(-1, 1) translate(-423.000000, -2.000000) " cx="423" cy="2" r="2"></circle>
                    <circle id="Oval" fill="#B83B5E" transform="translate(453.000000, 2.000000) scale(-1, 1) translate(-453.000000, -2.000000) " cx="453" cy="2" r="2"></circle>
                    <circle id="Oval" fill="#F08A5D" transform="translate(2.000000, 2.000000) scale(-1, 1) translate(-2.000000, -2.000000) " cx="2" cy="2" r="2"></circle>
                    <circle id="Oval" fill="#6A2C70" transform="translate(32.000000, 2.000000) scale(-1, 1) translate(-32.000000, -2.000000) " cx="32" cy="2" r="2"></circle>
                    <circle id="Oval" fill="#F08A5D" transform="translate(62.000000, 2.000000) scale(-1, 1) translate(-62.000000, -2.000000) " cx="62" cy="2" r="2"></circle>
                    <circle id="Oval" fill="#F9ED69" transform="translate(92.000000, 2.000000) scale(-1, 1) translate(-92.000000, -2.000000) " cx="92" cy="2" r="2"></circle>
                </g>
            </g>
        </g>
    </g>
</svg>