<?xml version="1.0" encoding="UTF-8"?>
<svg width="150px" height="42px" viewBox="0 0 150 42" version="1.1" xmlns="http://www.w3.org/2000/svg" xmlns:xlink="http://www.w3.org/1999/xlink">
    <!-- Generator: Sketch 40.2 (33826) - http://www.bohemiancoding.com/sketch -->
    <title>github</title>
    <desc>Created with Sketch.</desc>
    <defs></defs>
    <g id="Page-1" stroke="none" stroke-width="1" fill="none" fill-rule="evenodd">
        <g id="github">
            <path d="M72.1956609,19.1424 L64.1136849,19.1424 C63.9052069,19.1424 63.7359813,19.3116 63.7359813,19.5198 L63.7359813,23.466 C63.7359813,23.6742 63.9052069,23.8436 64.1136849,23.8436 L67.2664887,23.8436 L67.2664887,28.7464 C67.2664887,28.7464 66.5585447,28.9874 64.6013351,28.9874 C62.2922563,28.9874 59.0665554,28.1448 59.0665554,21.0612 C59.0665554,13.976 62.4254339,13.0438 65.5788385,13.0438 C68.308478,13.0438 69.4844459,13.5238 70.2326435,13.755 C70.467757,13.827 70.685247,13.5932 70.685247,13.3848 L71.5868491,9.572 C71.5868491,9.4746 71.5538051,9.3572 71.4424566,9.2774 C71.1386515,9.061 69.2847797,8.025 64.6013351,8.025 C59.2059413,8.025 53.6715621,10.3174 53.6715621,21.3374 C53.6715621,32.3578 60.0080107,34 65.34753,34 C69.7686248,34 72.4506008,32.1132 72.4506008,32.1132 C72.5611482,32.0522 72.5731642,31.898 72.5731642,31.8272 L72.5731642,19.5198 C72.5731642,19.3116 72.4041389,19.1424 72.1956609,19.1424" id="Fill-1" fill="#11100F"></path>
            <path d="M113.846796,9.3454 C113.846796,9.1354 113.680174,8.966 113.471696,8.966 L108.921028,8.966 C108.713151,8.966 108.544126,9.1354 108.544126,9.3454 C108.544126,9.3464 108.545327,18.128 108.545327,18.128 L101.452069,18.128 L101.452069,9.3454 C101.452069,9.1354 101.284646,8.966 101.076569,8.966 L96.5261015,8.966 C96.3190254,8.966 96.1502003,9.1354 96.1502003,9.3454 L96.1502003,33.126 C96.1502003,33.3358 96.3190254,33.5066 96.5261015,33.5066 L101.076569,33.5066 C101.284646,33.5066 101.452069,33.3358 101.452069,33.126 L101.452069,22.9542 L108.545327,22.9542 C108.545327,22.9542 108.532911,33.1252 108.532911,33.126 C108.532911,33.3358 108.701736,33.5066 108.909813,33.5066 L113.471295,33.5066 C113.679773,33.5066 113.846395,33.3358 113.846796,33.126 L113.846796,9.3454" id="Fill-2" fill="#11100F"></path>
            <path d="M80.7829105,12.466 C80.7829105,10.8296 79.4691589,9.5072 77.8483979,9.5072 C76.229239,9.5072 74.914486,10.8296 74.914486,12.466 C74.914486,14.1006 76.229239,15.4266 77.8483979,15.4266 C79.4691589,15.4266 80.7829105,14.1006 80.7829105,12.466" id="Fill-3" fill="#11100F"></path>
            <path d="M80.4574766,28.1096 L80.4574766,17.1324 C80.4574766,16.924 80.2890521,16.7536 80.0809746,16.7536 L75.5447263,16.7536 C75.3366489,16.7536 75.1504005,16.968 75.1504005,17.1764 L75.1504005,32.9034 C75.1504005,33.3656 75.438785,33.503 75.8120828,33.503 L79.8991322,33.503 C80.34753,33.503 80.4574766,33.2832 80.4574766,32.896 L80.4574766,28.1096" id="Fill-4" fill="#11100F"></path>
            <path d="M131.141255,16.7894 L126.625434,16.7894 C126.418358,16.7894 126.249733,16.9598 126.249733,17.1696 L126.249733,28.83 C126.249733,28.83 125.102603,29.6682 123.474232,29.6682 C121.846061,29.6682 121.413885,28.9304 121.413885,27.3382 L121.413885,17.1696 C121.413885,16.9598 121.245661,16.7894 121.038385,16.7894 L116.455274,16.7894 C116.248398,16.7894 116.078972,16.9598 116.078972,17.1696 L116.078972,28.1082 C116.078972,32.8374 118.718291,33.9944 122.349132,33.9944 C125.327704,33.9944 127.729306,32.351 127.729306,32.351 C127.729306,32.351 127.843658,33.217 127.895327,33.3198 C127.947196,33.4222 128.081976,33.5256 128.22757,33.5256 L131.143258,33.5128 C131.350134,33.5128 131.519559,33.342 131.519559,33.1332 L131.518158,17.1696 C131.518158,16.9598 131.349332,16.7894 131.141255,16.7894" id="Fill-5" fill="#11100F"></path>
            <path d="M141.702336,29.6538 C140.136048,29.6062 139.073632,28.8964 139.073632,28.8964 L139.073632,21.3656 C139.073632,21.3656 140.121829,20.724 141.407744,20.6092 C143.033912,20.4638 144.600801,20.9544 144.600801,24.8284 C144.600801,28.9136 143.893658,29.7198 141.702336,29.6538 L141.702336,29.6538 Z M143.483511,16.2552 C140.918692,16.2552 139.174166,17.398 139.174166,17.398 L139.174166,9.3454 C139.174166,9.1354 139.006142,8.966 138.798665,8.966 L134.23518,8.966 C134.027704,8.966 133.859079,9.1354 133.859079,9.3454 L133.859079,33.126 C133.859079,33.3358 134.027704,33.5066 134.235781,33.5066 L137.402003,33.5066 C137.544593,33.5066 137.652537,33.4332 137.732243,33.3046 C137.810948,33.1768 137.924499,32.2082 137.924499,32.2082 C137.924499,32.2082 139.790587,33.9742 143.323097,33.9742 C147.470227,33.9742 149.848598,31.8734 149.848598,24.5432 C149.848598,17.213 146.050134,16.2552 143.483511,16.2552 L143.483511,16.2552 Z" id="Fill-6" fill="#11100F"></path>
            <path d="M93.5363151,16.7514 L90.1227637,16.7514 C90.1227637,16.7514 90.1175567,12.2488 90.1175567,12.2478 C90.1175567,12.0774 90.0296395,11.9922 89.8323765,11.9922 L85.1805741,11.9922 C84.999733,11.9922 84.9026035,12.0716 84.9026035,12.2452 L84.9026035,16.8992 C84.9026035,16.8992 82.5714953,17.4612 82.4138852,17.5066 C82.2568758,17.552 82.1413218,17.6966 82.1413218,17.869 L82.1413218,20.7936 C82.1413218,21.004 82.3095461,21.1736 82.5176235,21.1736 L84.9026035,21.1736 L84.9026035,28.2092 C84.9026035,33.435 88.5730975,33.9484 91.05,33.9484 C92.1817089,33.9484 93.535514,33.5854 93.759012,33.503 C93.8941923,33.4534 93.9726969,33.3136 93.9726969,33.162 L93.976502,29.9448 C93.976502,29.735 93.7990654,29.5652 93.5991989,29.5652 C93.4003338,29.5652 92.8914553,29.646 92.3675567,29.646 C90.6909212,29.646 90.1227637,28.8674 90.1227637,27.8596 C90.1227637,26.8526 90.1225634,21.1736 90.1225634,21.1736 L93.5363151,21.1736 C93.7443925,21.1736 93.9128171,21.004 93.9128171,20.7936 L93.9128171,17.1304 C93.9128171,16.9206 93.7443925,16.7514 93.5363151,16.7514" id="Fill-7" fill="#11100F"></path>
            <path d="M21.5514125,0.1 C9.71387425,0.1 0.114843724,9.68445928 0.114843724,21.5079867 C0.114843724,30.9665958 6.25707312,38.991223 14.7744777,41.8219638 C15.8458092,42.0201334 16.2391277,41.3575592 16.2391277,40.7921201 C16.2391277,40.2816296 16.2192488,38.5952384 16.2100193,36.8063946 C10.2463452,38.1014097 8.98793892,34.2805301 8.98793892,34.2805301 C8.01280719,31.8060691 6.60779396,31.1481036 6.60779396,31.1481036 C4.66285523,29.8194102 6.75440095,29.8467073 6.75440095,29.8467073 C8.90700334,29.9977274 10.0404564,32.0528062 10.0404564,32.0528062 C11.9523819,35.3256176 15.0552674,34.3794376 16.2785306,33.8324328 C16.4709301,32.4487909 17.0264747,31.5043834 17.6395262,30.9697864 C12.8781714,30.4284538 7.87294484,28.592815 7.87294484,20.3898706 C7.87294484,18.052604 8.71034408,16.1428732 10.0816342,14.6436619 C9.85906132,14.1044563 9.12531641,11.9270724 10.2892978,8.97828075 C10.2892978,8.97828075 12.0894045,8.4029154 16.1858806,11.1726809 C17.8958222,10.6983502 19.729652,10.4604758 21.5514125,10.4523221 C23.3731729,10.4604758 25.2084227,10.6983502 26.9215591,11.1726809 C31.0130655,8.4029154 32.8106873,8.97828075 32.8106873,8.97828075 C33.9775085,11.9270724 33.2434086,14.1044563 33.0208358,14.6436619 C34.3953207,16.1428732 35.2270403,18.052604 35.2270403,20.3898706 C35.2270403,28.6123129 30.2122293,30.4227817 25.4388051,30.9527701 C26.2076931,31.6171167 26.8928056,32.9199311 26.8928056,34.9172252 C26.8928056,37.7816441 26.867957,40.0870051 26.867957,40.7921201 C26.867957,41.3618133 27.2538209,42.0293506 28.3404165,41.8191277 C36.8532064,38.9851964 42.9876262,30.9634053 42.9876262,21.5079867 C42.9876262,9.68445928 33.3900156,0.1 21.5514125,0.1" id="Fill-4" fill="#151513"></path>
        </g>
    </g>
</svg>