<?xml version="1.0" encoding="UTF-8"?>
<svg width="27px" height="25px" viewBox="0 0 27 25" version="1.1" xmlns="http://www.w3.org/2000/svg" xmlns:xlink="http://www.w3.org/1999/xlink">
    <!-- Generator: Sketch 40.2 (33826) - http://www.bohemiancoding.com/sketch -->
    <title>management</title>
    <desc>Created with Sketch.</desc>
    <defs></defs>
    <g id="Page-1" stroke="none" stroke-width="1" fill="none" fill-rule="evenodd">
        <g id="P-8" transform="translate(-1135.000000, -1395.000000)" fill="#B83B5E">
            <g id="management" transform="translate(1135.000000, 1395.000000)">
                <path d="M24.5025,5.53125 L26.0811,4.62767857 L25.6311,3.85535714 L24.0579,4.75535714 C23.5674,4.03035714 22.9383,3.40625 22.2075,2.91875 L23.1156,1.35982143 L22.3371,0.913392857 L21.4263,2.47767857 C20.655,2.10089286 19.8018,1.86696429 18.9,1.80803571 L18.9,0 L18,0 L18,1.80803571 C17.0982,1.86696429 16.2459,2.10089286 15.4755,2.47767857 L14.5647,0.913392857 L13.7844,1.35982143 L14.6925,2.91875 C13.9617,3.40535714 13.3326,4.02946429 12.8421,4.75535714 L11.2707,3.85535714 L10.8207,4.62767857 L12.3975,5.53125 C12.0636,6.20446429 11.8368,6.93660714 11.7468,7.71339286 C12.0456,7.82053571 12.3363,7.94285714 12.6207,8.07767857 C12.8295,5.06160714 15.3558,2.67767857 18.45,2.67767857 C21.681,2.67767857 24.3,5.27589286 24.3,8.48125 C24.3,11.6866071 21.681,14.2848214 18.45,14.2848214 C18.2979,14.2848214 18.1494,14.2741071 18,14.2625 L18,16.9642857 L18.9,16.9642857 L18.9,15.15625 C19.8018,15.0982143 20.6541,14.8633929 21.4245,14.4866071 L22.3353,16.0526786 L23.1156,15.60625 L22.2066,14.0455357 C22.9383,13.5589286 23.5674,12.9348214 24.0579,12.2107143 L25.6302,13.1107143 L26.0802,12.3383929 L24.5025,11.4339286 C24.8823,10.6696429 25.1181,9.825 25.1775,8.92946429 L27,8.92946429 L27,8.03660714 L25.1775,8.03660714 C25.1172,7.14107143 24.8814,6.29732143 24.5025,5.53125" id="Fill-1"></path>
                <path d="M19.8,8.48214286 C19.8,9.22142857 19.1952,9.82142857 18.45,9.82142857 C17.7048,9.82142857 17.1,9.22142857 17.1,8.48214286 C17.1,7.74285714 17.7048,7.14285714 18.45,7.14285714 C19.1952,7.14285714 19.8,7.74285714 19.8,8.48214286" id="Fill-2"></path>
                <path d="M2.4975,19.4705357 L0.9207,20.3741071 L1.3707,21.1464286 L2.9421,20.2464286 C3.4326,20.9714286 4.0617,21.5955357 4.7934,22.0821429 L3.8853,23.6419643 L4.6647,24.0875 L5.5755,22.5232143 C6.345,22.8991071 7.1973,23.1339286 8.1,23.1919643 L8.1,25 L9,25 L9,23.1919643 C9.9018,23.1339286 10.7532,22.8991071 11.5245,22.5223214 L12.4353,24.0883929 L13.2147,23.6419643 L12.3066,22.08125 C13.0383,21.5946429 13.6674,20.9705357 14.1579,20.2464286 L15.7293,21.1464286 L16.1793,20.3741071 L14.6025,19.4696429 C14.9823,18.7053571 15.2181,17.8607143 15.2775,16.9651786 L17.1,16.9651786 L17.1,16.0723214 L15.2775,16.0723214 C15.2181,15.1767857 14.9823,14.3330357 14.6025,13.5669643 L16.1802,12.6633929 L15.7302,11.8910714 L14.1579,12.7910714 C13.6674,12.0660714 13.0383,11.4419643 12.3066,10.9544643 L13.2156,9.39553571 L12.4362,8.94910714 L11.5254,10.5133929 C10.755,10.1366071 9.9018,9.90267857 9,9.84375 L9,8.03571429 L8.1,8.03571429 L8.1,9.84375 C7.1973,9.90267857 6.3459,10.1366071 5.5746,10.5133929 L4.6638,8.94910714 L3.8844,9.39553571 L4.7916,10.9544643 C4.0617,11.4410714 3.4326,12.0651786 2.9421,12.7910714 L1.3698,11.8910714 L0.9198,12.6633929 L2.4966,13.5669643 C2.1177,14.3321429 1.881,15.1767857 1.8225,16.0723214 L0,16.0723214 L0,16.9651786 L1.8225,16.9651786 C1.8828,17.8607143 2.1186,18.7044643 2.4975,19.4705357 L2.4975,19.4705357 Z M8.55,10.7142857 C11.781,10.7142857 14.4,13.3125 14.4,16.5178571 C14.4,19.7232143 11.781,22.3214286 8.55,22.3214286 C5.319,22.3214286 2.7,19.7232143 2.7,16.5178571 C2.7,13.3125 5.319,10.7142857 8.55,10.7142857 L8.55,10.7142857 Z" id="Fill-3"></path>
                <path d="M9.9,16.5178571 C9.9,17.2571429 9.2952,17.8571429 8.55,17.8571429 C7.8048,17.8571429 7.2,17.2571429 7.2,16.5178571 C7.2,15.7785714 7.8048,15.1785714 8.55,15.1785714 C9.2952,15.1785714 9.9,15.7785714 9.9,16.5178571" id="Fill-4"></path>
            </g>
        </g>
    </g>
</svg>