<?xml version="1.0" encoding="UTF-8"?>
<svg width="22px" height="24px" viewBox="0 0 22 24" version="1.1" xmlns="http://www.w3.org/2000/svg" xmlns:xlink="http://www.w3.org/1999/xlink">
    <!-- Generator: Sketch 40.2 (33826) - http://www.bohemiancoding.com/sketch -->
    <title>microservices</title>
    <desc>Created with Sketch.</desc>
    <defs></defs>
    <g id="Page-1" stroke="none" stroke-width="1" fill="none" fill-rule="evenodd">
        <g id="pushpin" transform="translate(-948.000000, -118.000000)" fill="#B83B5E">
            <path d="M952,126 C949.79,126 948,127.791 948,130 C948,132.209 949.79,134 952,134 C953.307,134 954.455,133.365 955.186,132.396 L962.307,136.465 C962.11,136.938 962,137.456 962,138 C962,140.209 963.79,142 966,142 C968.209,142 970,140.209 970,138 C970,136.139 968.723,134.588 967,134.142 L967,125.859 C968.723,125.413 970,123.862 970,122.001 C970,119.792 968.209,118.001 966,118.001 C963.79,118.001 962,119.792 962,122.001 C962,122.545 962.11,123.063 962.307,123.535 L955.186,127.604 C954.455,126.635 953.307,126 952,126 L952,126 Z M952,133 C950.346,133 949,131.654 949,130 C949,128.346 950.346,127 952,127 C953.654,127 955,128.346 955,130 C955,131.654 953.654,133 952,133 L952,133 Z M969,138 C969,139.654 967.654,141 966,141 C964.346,141 963,139.654 963,138 C963,136.346 964.346,135 966,135 C967.654,135 969,136.346 969,138 L969,138 Z M966,119 C967.654,119 969,120.346 969,122 C969,123.654 967.654,125 966,125 C964.346,125 963,123.654 963,122 C963,120.346 964.346,119 966,119 L966,119 Z M955.693,128.466 L962.814,124.397 C963.544,125.366 964.693,126.001 966,126.001 L966,134.001 C964.693,134.001 963.545,134.636 962.814,135.605 L955.693,131.536 C955.889,131.063 956,130.546 956,130.002 C956,129.458 955.89,128.938 955.693,128.466 L955.693,128.466 Z" id="microservices"></path>
        </g>
    </g>
</svg>