<?xml version="1.0" encoding="UTF-8"?>
<svg width="111px" height="110px" viewBox="0 0 111 110" version="1.1" xmlns="http://www.w3.org/2000/svg" xmlns:xlink="http://www.w3.org/1999/xlink">
    <!-- Generator: Sketch 40.2 (33826) - http://www.bohemiancoding.com/sketch -->
    <title>point-check</title>
    <desc>Created with Sketch.</desc>
    <defs></defs>
    <g id="Page-1" stroke="none" stroke-width="1" fill="none" fill-rule="evenodd">
        <g id="P-8" transform="translate(-744.000000, -950.000000)">
            <g id="point-check" transform="translate(744.000000, 950.000000)">
                <ellipse id="Oval-3" fill="#F5F5F5" cx="55.0654239" cy="55" rx="55.0654239" ry="55"></ellipse>
                <g id="circle-tick-7" transform="translate(22.000000, 21.000000)">
                    <path d="M34,68 C52.7784615,68 68,52.7784615 68,34 C68,15.2215385 52.7784615,0 34,0 C15.2215385,0 0,15.2215385 0,34 C0,52.7784615 15.2215385,68 34,68 L34,68 Z M34,2.61538462 C51.306,2.61538462 65.3846154,16.694 65.3846154,34 C65.3846154,51.306 51.306,65.3846154 34,65.3846154 C16.694,65.3846154 2.61538462,51.306 2.61538462,34 C2.61538462,16.694 16.694,2.61538462 34,2.61538462 L34,2.61538462 Z" id="Fill-1" fill="#5B5B5B"></path>
                    <polyline id="Fill-2" fill="#B511C5" points="51.7950769 22.6806154 49.946 20.8315385 27.3046154 43.4703077 18.0566154 34.2249231 16.2075385 36.074 27.3046154 47.1684615"></polyline>
                </g>
            </g>
        </g>
    </g>
</svg>