<?xml version="1.0" encoding="UTF-8"?>
<svg width="111px" height="110px" viewBox="0 0 111 110" version="1.1" xmlns="http://www.w3.org/2000/svg" xmlns:xlink="http://www.w3.org/1999/xlink">
    <!-- Generator: Sketch 40.2 (33826) - http://www.bohemiancoding.com/sketch -->
    <title>point-plug-n-play</title>
    <desc>Created with Sketch.</desc>
    <defs>
        <polygon id="path-1" points="0 56.8575 57 56.8575 57 0 0 0"></polygon>
    </defs>
    <g id="Page-1" stroke="none" stroke-width="1" fill="none" fill-rule="evenodd">
        <g id="P-8" transform="translate(-746.000000, -1292.000000)">
            <g id="point-plug-n-play" transform="translate(746.000000, 1292.000000)">
                <ellipse id="Oval-3" fill="#F5F5F5" cx="55.0654239" cy="55" rx="55.0654239" ry="55"></ellipse>
                <g id="seo_website-code" transform="translate(28.000000, 26.000000)">
                    <g id="Group-3">
                        <mask id="mask-2" fill="white">
                            <use xlink:href="#path-1"></use>
                        </mask>
                        <g id="Clip-2"></g>
                        <path d="M55.8125,0 L1.1875,0 C0.532,0 0,0.532 0,1.1875 L0,55.8125 C0,56.468 0.532,57 1.1875,57 L55.8125,57 C56.468,57 57,56.468 57,55.8125 L57,1.1875 C57,0.532 56.468,0 55.8125,0 L55.8125,0 Z M2.375,11.875 L54.625,11.875 L54.625,2.375 L2.375,2.375 L2.375,11.875 Z M2.375,54.625 L54.625,54.625 L54.625,14.25 L2.375,14.25 L2.375,54.625 Z" id="Fill-1" fill="#5B5B5B" mask="url(#mask-2)"></path>
                    </g>
                    <path d="M11.75,6.375 C11.75,7.686 10.686,8.75 9.375,8.75 C8.064,8.75 7,7.686 7,6.375 C7,5.064 8.064,4 9.375,4 C10.686,4 11.75,5.064 11.75,6.375" id="Fill-4" fill="#F25D00"></path>
                    <path d="M18.75,6.375 C18.75,7.686 17.686,8.75 16.375,8.75 C15.064,8.75 14,7.686 14,6.375 C14,5.064 15.064,4 16.375,4 C17.686,4 18.75,5.064 18.75,6.375" id="Fill-5" fill="#F25D00"></path>
                    <path d="M25.75,6.375 C25.75,7.686 24.686,8.75 23.375,8.75 C22.064,8.75 21,7.686 21,6.375 C21,5.064 22.064,4 23.375,4 C24.686,4 25.75,5.064 25.75,6.375" id="Fill-6" fill="#F25D00"></path>
                    <path d="M32.7317376,23.0759972 C32.1213626,22.8456222 31.4326126,23.1567472 31.2022376,23.7694972 L24.0772376,42.7694972 C23.8444876,43.3846222 24.1556126,44.0686222 24.7707376,44.2989972 C24.9084876,44.3512472 25.0486126,44.3749972 25.1887376,44.3749972 C25.6684876,44.3749972 26.1221126,44.0804972 26.3002376,43.6054972 L33.4252376,24.6054972 C33.6556126,23.9903722 33.3468626,23.3063722 32.7317376,23.0759972" id="Fill-7" fill="#F25D00"></path>
                    <path d="M23.749125,28.6573533 C23.454625,28.0683533 22.7445,27.8332283 22.1555,28.1253533 L12.6555,32.8753533 C12.254125,33.0796033 12,33.4904783 12,33.9393533 C12,34.3882283 12.254125,34.7991033 12.6555,35.0009783 L22.1555,39.7509783 C22.328875,39.8364783 22.509375,39.8768533 22.6875,39.8768533 C23.122125,39.8768533 23.540125,39.6369783 23.749125,39.2213533 C24.04125,38.6347283 23.80375,37.9222283 23.217125,37.6277283 L15.84275,33.9393533 L23.217125,30.2509783 C23.806125,29.9588533 24.04125,29.2439783 23.749125,28.6573533" id="Fill-8" fill="#F25D00"></path>
                    <path d="M44.2185516,32.873885 L34.7185516,28.123885 C34.1343016,27.834135 33.4194266,28.06926 33.1249266,28.655885 C32.8328016,29.24251 33.0703016,29.95501 33.6569266,30.24951 L41.0313016,33.937885 L33.6569266,37.62626 C33.0703016,37.92076 32.8328016,38.63326 33.1249266,39.219885 C33.3339266,39.633135 33.7519266,39.87301 34.1865516,39.87301 C34.3646766,39.87301 34.5451766,39.832635 34.7185516,39.747135 L44.2185516,34.997135 C44.6199266,34.79526 44.8740516,34.384385 44.8740516,33.93551 C44.8740516,33.486635 44.6199266,33.07576 44.2185516,32.873885" id="Fill-9" fill="#F25D00"></path>
                </g>
            </g>
        </g>
    </g>
</svg>