<?xml version="1.0" encoding="UTF-8"?>
<svg width="23px" height="23px" viewBox="0 0 23 23" version="1.1" xmlns="http://www.w3.org/2000/svg" xmlns:xlink="http://www.w3.org/1999/xlink">
    <!-- Generator: Sketch 40.2 (33826) - http://www.bohemiancoding.com/sketch -->
    <title>protocol</title>
    <desc>Created with Sketch.</desc>
    <defs></defs>
    <g id="Page-1" stroke="none" stroke-width="1" fill="none" fill-rule="evenodd">
        <g id="pushpin" transform="translate(-1104.000000, -1040.000000)" fill="#B83B5E">
            <g id="Page-1" transform="translate(1104.000000, 1040.000000)">
                <path d="M18.921,15.921 C18.726,16.115999 18.726,16.432999 18.921,16.628 C19.019,16.726 19.147,16.774 19.275,16.774 C19.403,16.774 19.531,16.725 19.629,16.628 C21.802,14.453 23,11.567 23,8.5 C23,5.433 21.802,2.547 19.628,0.372 C19.433,0.177 19.116,0.177 18.921,0.372 C18.726,0.567 18.726,0.884 18.921,1.079 C20.906,3.064 22,5.7 22,8.5 C22,11.3 20.906,13.936 18.921,15.921 Z M3.372,0.372 C1.198,2.547 0,5.433 0,8.5 C0,11.567 1.198,14.453 3.372,16.628 C3.47,16.726 3.598,16.774 3.726,16.774 C3.854,16.774 3.982,16.725 4.08,16.628 C4.275,16.433001 4.275,16.116001 4.08,15.921 C2.094,13.936 1,11.3 1,8.5 C1,5.7 2.094,3.064 4.079,1.079 C4.274,0.884 4.274,0.567 4.079,0.372 C3.884,0.177 3.567,0.177 3.372,0.372 Z M16.801,2.492 C16.606,2.687 16.606,3.004 16.801,3.199 C18.219,4.617 19,6.499 19,8.5 C19,10.501 18.219,12.383 16.801,13.801001 C16.606,13.996 16.606,14.313001 16.801,14.508 C16.899,14.606 17.027,14.654 17.155,14.654 C17.283,14.654 17.411,14.605 17.509,14.508 C19.115,12.901 20,10.768 20,8.5 C20,6.232 19.115,4.099 17.508,2.492 C17.313,2.297 16.996,2.297 16.801,2.492 Z M5.492,2.492 C3.885,4.099 3,6.232 3,8.5 C3,10.768 3.885,12.901 5.492,14.507999 C5.59,14.605999 5.718,14.653999 5.846,14.653999 C5.974,14.653999 6.102,14.605 6.2,14.507999 C6.395,14.313 6.395,13.995999 6.2,13.801 C4.781,12.383 4,10.501 4,8.5 C4,6.499 4.781,4.617 6.199,3.199 C6.394,3.004 6.394,2.687 6.199,2.492 C6.004,2.297 5.688,2.297 5.492,2.492 Z M14.68,12.388 C14.778,12.486 14.906,12.534 15.034,12.534 C15.162,12.534 15.29,12.485 15.388,12.388 C16.427,11.347 17,9.966 17,8.5 C17,7.034 16.427,5.653 15.387,4.612 C15.192,4.417 14.875,4.417 14.68,4.612 C14.485,4.807 14.485,5.124 14.68,5.319 C15.531,6.171 16,7.301 16,8.5 C16,9.699 15.531,10.829 14.68,11.681 C14.485,11.876 14.485,12.192 14.68,12.388 Z M8.32,4.612 C8.125,4.417 7.807,4.417 7.613,4.612 C6.573,5.653 6,7.034 6,8.5 C6,9.966 6.573,11.347 7.613,12.388 C7.711,12.486 7.839,12.534 7.967,12.534 C8.095,12.534 8.223,12.485 8.321,12.388 C8.516,12.193 8.516,11.876 8.321,11.681 C7.469,10.829 7,9.699 7,8.5 C7,7.301 7.469,6.171 8.32,5.319 C8.515,5.124 8.515,4.808 8.32,4.612 Z M14,8.5 C14,7.121 12.878,6 11.5,6 C10.122,6 9,7.121 9,8.5 C9,9.708 9.86,10.717 11,10.949 L11,22.5 C11,22.776001 11.224,23 11.5,23 C11.776,23 12,22.7759991 12,22.5 L12,10.949 C13.14,10.717 14,9.708 14,8.5 Z" id="protocol"></path>
            </g>
        </g>
    </g>
</svg>