<?xml version="1.0" encoding="UTF-8"?>
<svg width="24px" height="23px" viewBox="0 0 24 23" version="1.1" xmlns="http://www.w3.org/2000/svg" xmlns:xlink="http://www.w3.org/1999/xlink">
    <!-- Generator: Sketch 40.2 (33826) - http://www.bohemiancoding.com/sketch -->
    <title>scale</title>
    <desc>Created with Sketch.</desc>
    <defs></defs>
    <g id="Page-1" stroke="none" stroke-width="1" fill="none" fill-rule="evenodd">
        <g id="pushpin" transform="translate(-1494.000000, -2259.000000)" fill="#B83B5E">
            <path d="M1517.5,2281 L1494.5,2281 C1494.224,2281 1494,2281.224 1494,2281.5 C1494,2281.776 1494.224,2282 1494.5,2282 L1517.5,2282 C1517.776,2282 1518,2281.776 1518,2281.5 C1518,2281.224 1517.776,2281 1517.5,2281 Z M1495.5,2280 C1496.175,2280 1496.741,2279.549 1496.928,2278.934 C1498.045,2278.844 1499.161,2278.645 1500.259,2278.342 C1500.529,2278.738 1500.984,2279 1501.5,2279 C1502.327,2279 1503,2278.327 1503,2277.5 C1503,2277.433 1502.989,2277.369 1502.98,2277.304 C1504.369,2276.652 1505.658,2275.823 1506.822,2274.831 C1507.027,2274.935 1507.255,2275 1507.5,2275 C1508.327,2275 1509,2274.327 1509,2273.5 C1509,2273.255 1508.935,2273.027 1508.831,2272.822 C1509.824,2271.657 1510.652,2270.369 1511.304,2268.98 C1511.369,2268.989 1511.433,2269 1511.5,2269 C1512.327,2269 1513,2268.327 1513,2267.5 C1513,2266.984 1512.738,2266.528 1512.34,2266.258 C1512.771,2264.723 1513,2263.126 1513,2261.5 L1513,2260.707 L1515.146,2262.853 C1515.244,2262.951 1515.372,2263 1515.5,2263 C1515.628,2263 1515.756,2262.951 1515.854,2262.854 C1516.049,2262.659 1516.049,2262.342 1515.854,2262.147 L1512.855,2259.148 C1512.809,2259.102 1512.753,2259.065 1512.692,2259.039 C1512.57,2258.988 1512.432,2258.988 1512.31,2259.039 C1512.248,2259.064 1512.193,2259.101 1512.147,2259.148 L1509.148,2262.147 C1508.953,2262.342 1508.953,2262.659 1509.148,2262.854 C1509.343,2263.049 1509.66,2263.049 1509.855,2262.854 L1512,2260.707 L1512,2261.5 C1512,2263.044 1511.782,2264.558 1511.371,2266.013 C1510.605,2266.08 1510,2266.717 1510,2267.5 C1510,2267.898 1510.159,2268.259 1510.413,2268.528 C1509.805,2269.83 1509.031,2271.038 1508.106,2272.131 C1507.92,2272.048 1507.716,2272 1507.5,2272 C1506.673,2272 1506,2272.673 1506,2273.5 C1506,2273.716 1506.048,2273.92 1506.13,2274.106 C1505.037,2275.031 1503.829,2275.805 1502.527,2276.413 C1502.259,2276.159 1501.898,2276 1501.5,2276 C1500.717,2276 1500.079,2276.606 1500.013,2277.372 C1498.982,2277.659 1497.935,2277.846 1496.888,2277.934 C1496.663,2277.387 1496.127,2277 1495.5,2277 C1494.673,2277 1494,2277.673 1494,2278.5 C1494,2279.327 1494.673,2280 1495.5,2280 Z M1511.5,2267 C1511.775,2267 1512,2267.225 1512,2267.5 C1512,2267.775 1511.775,2268 1511.5,2268 C1511.225,2268 1511,2267.775 1511,2267.5 C1511,2267.225 1511.225,2267 1511.5,2267 Z M1507.5,2273 C1507.775,2273 1508,2273.225 1508,2273.5 C1508,2273.775 1507.775,2274 1507.5,2274 C1507.225,2274 1507,2273.775 1507,2273.5 C1507,2273.225 1507.225,2273 1507.5,2273 Z M1495.5,2278 C1495.775,2278 1496,2278.225 1496,2278.5 C1496,2278.775 1495.775,2279 1495.5,2279 C1495.225,2279 1495,2278.775 1495,2278.5 C1495,2278.225 1495.225,2278 1495.5,2278 Z" id="scale"></path>
        </g>
    </g>
</svg>