<?xml version="1.0" encoding="UTF-8"?>
<svg width="26px" height="20px" viewBox="0 0 26 20" version="1.1" xmlns="http://www.w3.org/2000/svg" xmlns:xlink="http://www.w3.org/1999/xlink">
    <!-- Generator: Sketch 40.2 (33826) - http://www.bohemiancoding.com/sketch -->
    <title>shuffle</title>
    <desc>Created with Sketch.</desc>
    <defs></defs>
    <g id="Page-1" stroke="none" stroke-width="1" fill="none" fill-rule="evenodd">
        <g id="pushpin" transform="translate(-1062.000000, -2161.000000)" fill="#B83B5E">
            <path d="M1072.762,2170.152 C1072.77,2170.14 1072.78,2170.129 1072.787,2170.117 C1072.997,2169.83 1073.183,2169.576 1073.38,2169.308 C1071.385,2166.609 1070.027,2164.999 1069,2164.999 L1062,2164.999 L1062,2165.999 L1069,2165.999 C1069.619,2166 1071.323,2168.199 1072.762,2170.152 Z M1081.92,2173.143 L1084.992,2176 L1078,2176 C1077.381,2176 1075.677,2173.801 1074.238,2171.848 C1074.23,2171.858 1074.22,2171.871 1074.213,2171.881 C1074.003,2172.17 1073.817,2172.424 1073.62,2172.692 C1075.615,2175.389 1076.973,2177.001 1078,2177.001 L1084.994,2177.001 L1081.92,2179.858 L1082.602,2180.59 L1087,2176.5 L1082.602,2172.41 L1081.92,2173.143 Z M1082.92,2162.143 L1085.992,2165 L1079,2165 C1077.806,2165 1076.169,2167.168 1073.596,2170.705 C1072.063,2172.814 1069.745,2176 1069,2176 L1062,2176 L1062,2177 L1069,2177 C1070.194,2177 1071.831,2174.832 1074.404,2171.293 C1075.937,2169.186 1078.255,2166 1079,2166 L1085.994,2166 L1082.92,2168.857 L1083.602,2169.589 L1088,2165.5 L1083.602,2161.41 L1082.92,2162.143 Z" id="shuffle"></path>
        </g>
    </g>
</svg>