<?xml version="1.0" encoding="UTF-8"?>
<svg width="23px" height="24px" viewBox="0 0 23 24" version="1.1" xmlns="http://www.w3.org/2000/svg" xmlns:xlink="http://www.w3.org/1999/xlink">
    <!-- Generator: Sketch 40.2 (33826) - http://www.bohemiancoding.com/sketch -->
    <title>stateless</title>
    <desc>Created with Sketch.</desc>
    <defs></defs>
    <g id="Page-1" stroke="none" stroke-width="1" fill="none" fill-rule="evenodd">
        <g id="P-8" transform="translate(-950.000000, -2258.000000)" fill="#B83B5E">
            <g id="stateless" transform="translate(950.000000, 2258.000000)">
                <path d="M5.152,20.562 C4.954,20.754 4.948,21.07 5.14,21.269 C6.841,23.03 9.1,24 11.5,24 C13.9,24 16.159,23.03 17.859,21.269 C18.051,21.07 18.046,20.754 17.847,20.562 C17.648,20.371 17.331,20.376 17.14,20.575 C15.63,22.139 13.627,23 11.5,23 C9.373,23 7.37,22.139 5.859,20.575 C5.67,20.376 5.354,20.371 5.152,20.562" id="Fill-1"></path>
                <path d="M6.998,18.65 C6.8,18.842 6.794,19.159 6.986,19.357 C8.192,20.607 9.796,21.295 11.5,21.295 C13.204,21.295 14.808,20.607 16.014,19.357 C16.206,19.159 16.201,18.842 16.002,18.65 C15.803,18.459 15.485,18.464 15.295,18.663 C14.278,19.715 12.931,20.295 11.5,20.295 C10.069,20.295 8.722,19.715 7.705,18.663 C7.514,18.464 7.198,18.46 6.998,18.65" id="Fill-4"></path>
                <path d="M14.168,17.446 C14.36,17.248 14.355,16.931 14.156,16.739 C13.957,16.547 13.641,16.554 13.449,16.752 C12.404,17.832 10.595,17.832 9.551,16.752 C9.361,16.554 9.044,16.547 8.844,16.739 C8.646,16.931 8.64,17.248 8.832,17.446 C9.544,18.183 10.491,18.59 11.5,18.59 C12.509,18.59 13.456,18.183 14.168,17.446" id="Fill-5"></path>
                <path d="M3.848,15 L18.196,15 C20.845,15 23,12.892 23,10.3 C23,7.998 21.246,6.034 18.943,5.678 C18.099,2.367 15.026,0 11.5,0 C7.28,0 3.845,3.347 3.826,7.467 C1.715,7.478 0,9.164 0,11.233 C0,13.311 1.726,15 3.848,15 L3.848,15 Z M3.848,8.467 C3.993,8.467 4.132,8.489 4.281,8.511 C4.425,8.532 4.581,8.469 4.693,8.365 C4.803,8.261 4.861,8.096 4.849,7.945 C4.838,7.798 4.826,7.65 4.826,7.5 C4.826,3.916 7.82,1 11.5,1 C14.678,1 17.43,3.201 18.045,6.233 C18.09,6.452 18.274,6.615 18.496,6.632 C20.461,6.784 22,8.396 22,10.3 C22,12.341 20.293,14 18.195,14 L3.848,14 C2.277,14 1,12.759 1,11.233 C1,9.707 2.277,8.467 3.848,8.467 L3.848,8.467 Z" id="Fill-6"></path>
            </g>
        </g>
    </g>
</svg>