<?xml version="1.0" encoding="UTF-8"?>
<svg width="113px" height="120px" viewBox="0 0 113 120" version="1.1" xmlns="http://www.w3.org/2000/svg" xmlns:xlink="http://www.w3.org/1999/xlink">
    <!-- Generator: Sketch 40.2 (33826) - http://www.bohemiancoding.com/sketch -->
    <title>symbol</title>
    <desc>Created with Sketch.</desc>
    <defs>
        <ellipse id="path-1" cx="56.5" cy="56.102459" rx="56.5" ry="56.102459"></ellipse>
    </defs>
    <g id="Page-1" stroke="none" stroke-width="1" fill="none" fill-rule="evenodd">
        <g id="pushpin" transform="translate(-1101.000000, -158.000000)">
            <g id="symbol" transform="translate(1101.000000, 158.000000)">
                <g>
                    <mask id="mask-2" fill="white">
                        <use xlink:href="#path-1"></use>
                    </mask>
                    <use id="Mask" fill="#F25D00" xlink:href="#path-1"></use>
                    <g id="Group" opacity="0.5" mask="url(#mask-2)">
                        <g transform="translate(0.489248, -0.654682)" id="Oval-3">
                            <ellipse fill="#F08A5D" cx="2.98690521" cy="3.63265149" rx="2.98690521" ry="2.9721694"></ellipse>
                            <ellipse fill="#F08A5D" cx="109.851736" cy="111.291232" rx="2.98690521" ry="2.9721694"></ellipse>
                            <ellipse fill="#F08A5D" cx="109.851736" cy="100.063037" rx="2.98690521" ry="2.9721694"></ellipse>
                            <ellipse fill="#F08A5D" cx="109.851736" cy="88.1743589" rx="2.98690521" ry="2.9721694"></ellipse>
                            <ellipse fill="#F08A5D" cx="109.851736" cy="76.9461634" rx="2.98690521" ry="2.9721694"></ellipse>
                            <ellipse fill="#F08A5D" cx="109.851736" cy="64.3970037" rx="2.98690521" ry="2.9721694"></ellipse>
                            <ellipse fill="#F08A5D" cx="109.851736" cy="51.1873619" rx="2.98690521" ry="2.9721694"></ellipse>
                            <ellipse fill="#F08A5D" cx="109.851736" cy="38.6382022" rx="2.98690521" ry="2.9721694"></ellipse>
                            <ellipse fill="#F08A5D" cx="109.851736" cy="27.4100067" rx="2.98690521" ry="2.9721694"></ellipse>
                            <ellipse fill="#F08A5D" cx="109.851736" cy="16.1818112" rx="2.98690521" ry="2.9721694"></ellipse>
                            <ellipse fill="#F08A5D" cx="109.851736" cy="3.63265149" rx="2.98690521" ry="2.9721694"></ellipse>
                            <ellipse fill="#F08A5D" cx="98.5678719" cy="111.291232" rx="2.98690521" ry="2.9721694"></ellipse>
                            <ellipse fill="#F08A5D" cx="98.5678719" cy="100.063037" rx="2.98690521" ry="2.9721694"></ellipse>
                            <ellipse fill="#F08A5D" cx="98.5678719" cy="88.1743589" rx="2.98690521" ry="2.9721694"></ellipse>
                            <ellipse fill-opacity="0.5" fill="#F08A5D" cx="98.5678719" cy="76.9461634" rx="2.98690521" ry="2.9721694"></ellipse>
                            <ellipse fill-opacity="0.5" fill="#F08A5D" cx="98.5678719" cy="64.3970037" rx="2.98690521" ry="2.9721694"></ellipse>
                            <ellipse fill-opacity="0.5" fill="#F08A5D" cx="98.5678719" cy="51.1873619" rx="2.98690521" ry="2.9721694"></ellipse>
                            <ellipse fill-opacity="0.5" fill="#F08A5D" cx="98.5678719" cy="38.6382022" rx="2.98690521" ry="2.9721694"></ellipse>
                            <ellipse fill="#F08A5D" cx="98.5678719" cy="27.4100067" rx="2.98690521" ry="2.9721694"></ellipse>
                            <ellipse fill="#F08A5D" cx="98.5678719" cy="16.1818112" rx="2.98690521" ry="2.9721694"></ellipse>
                            <ellipse fill="#F08A5D" cx="98.5678719" cy="3.63265149" rx="2.98690521" ry="2.9721694"></ellipse>
                            <ellipse fill="#F08A5D" cx="86.6202511" cy="111.291232" rx="2.98690521" ry="2.9721694"></ellipse>
                            <ellipse fill="#F08A5D" cx="86.6202511" cy="100.063037" rx="2.98690521" ry="2.9721694"></ellipse>
                            <ellipse fill="#F9ED69" cx="86.9521294" cy="88.5046" rx="3.31878357" ry="3.30241045"></ellipse>
                            <ellipse fill-opacity="0.5" fill="#F08A5D" cx="86.9521294" cy="77.2764044" rx="3.31878357" ry="3.30241045"></ellipse>
                            <ellipse fill="#F9ED69" cx="87.2840078" cy="65.0574858" rx="3.65066192" ry="3.63265149"></ellipse>
                            <ellipse fill="#F08A5D" cx="87.2840078" cy="51.847844" rx="3.65066192" ry="3.63265149"></ellipse>
                            <ellipse fill="#F9ED69" cx="87.2840078" cy="39.2986843" rx="3.65066192" ry="3.63265149"></ellipse>
                            <ellipse fill-opacity="0.5" fill="#F08A5D" cx="86.9521294" cy="27.7402477" rx="3.31878357" ry="3.30241045"></ellipse>
                            <ellipse fill="#F08A5D" cx="86.6202511" cy="16.1818112" rx="2.98690521" ry="2.9721694"></ellipse>
                            <ellipse fill="#F08A5D" cx="86.6202511" cy="3.63265149" rx="2.98690521" ry="2.9721694"></ellipse>
                            <ellipse fill="#F08A5D" cx="74.0088735" cy="111.291232" rx="2.98690521" ry="2.9721694"></ellipse>
                            <ellipse fill-opacity="0.5" fill="#F9ED69" cx="74.0088735" cy="100.063037" rx="2.98690521" ry="2.9721694"></ellipse>
                            <ellipse fill-opacity="0.5" fill="#F08A5D" cx="74.3407519" cy="88.5046" rx="3.31878357" ry="3.30241045"></ellipse>
                            <ellipse fill="#F08A5D" cx="74.3407519" cy="77.2764044" rx="3.31878357" ry="3.30241045"></ellipse>
                            <ellipse fill="#F08A5D" cx="75.0045086" cy="65.3877268" rx="3.98254028" ry="3.96289254"></ellipse>
                            <ellipse fill="#F9ED69" cx="75.0045086" cy="52.178085" rx="3.98254028" ry="3.96289254"></ellipse>
                            <ellipse fill-opacity="0.700000048" fill="#F08A5D" cx="75.0045086" cy="39.6289254" rx="3.98254028" ry="3.96289254"></ellipse>
                            <ellipse fill="#F08A5D" cx="74.3407519" cy="27.7402477" rx="3.31878357" ry="3.30241045"></ellipse>
                            <ellipse fill-opacity="0.5" fill="#F9ED69" cx="74.0088735" cy="16.1818112" rx="2.98690521" ry="2.9721694"></ellipse>
                            <ellipse fill="#F08A5D" cx="74.0088735" cy="3.63265149" rx="2.98690521" ry="2.9721694"></ellipse>
                            <ellipse fill="#F08A5D" cx="61.397496" cy="110.63075" rx="2.98690521" ry="2.9721694"></ellipse>
                            <ellipse fill-opacity="0.5" fill="#F08A5D" cx="61.397496" cy="99.4025544" rx="2.98690521" ry="2.9721694"></ellipse>
                            <ellipse fill="#F08A5D" cx="61.7293743" cy="87.8441179" rx="3.31878357" ry="3.30241045"></ellipse>
                            <ellipse fill="#F9ED69" cx="61.7293743" cy="76.6159224" rx="3.31878357" ry="3.30241045"></ellipse>
                            <ellipse fill-opacity="0.800000012" fill="#F08A5D" cx="62.393131" cy="65.3877268" rx="3.98254028" ry="3.96289254"></ellipse>
                            <ellipse fill-opacity="0.800000012" fill="#F08A5D" cx="62.7250094" cy="52.5083261" rx="4.97817535" ry="4.95361567"></ellipse>
                            <ellipse fill-opacity="0.700000048" fill="#F9ED69" cx="62.393131" cy="38.9684433" rx="3.98254028" ry="3.96289254"></ellipse>
                            <ellipse fill="#F08A5D" cx="61.7293743" cy="27.0797657" rx="3.31878357" ry="3.30241045"></ellipse>
                            <ellipse fill="#F9ED69" cx="61.397496" cy="15.5213291" rx="2.98690521" ry="2.9721694"></ellipse>
                            <ellipse fill="#F08A5D" cx="61.397496" cy="2.9721694" rx="2.98690521" ry="2.9721694"></ellipse>
                            <ellipse fill="#F08A5D" cx="48.7861184" cy="111.291232" rx="2.98690521" ry="2.9721694"></ellipse>
                            <ellipse fill="#F9ED69" cx="48.7861184" cy="100.063037" rx="2.98690521" ry="2.9721694"></ellipse>
                            <ellipse fill="#F08A5D" cx="49.1179968" cy="88.5046" rx="3.31878357" ry="3.30241045"></ellipse>
                            <ellipse fill="#F08A5D" cx="49.1179968" cy="77.2764044" rx="3.31878357" ry="3.30241045"></ellipse>
                            <ellipse fill-opacity="0.800000012" fill="#F9ED69" cx="49.7817535" cy="65.3877268" rx="3.98254028" ry="3.96289254"></ellipse>
                            <ellipse fill-opacity="0.800000012" fill="#F08A5D" cx="49.7817535" cy="52.178085" rx="3.98254028" ry="3.96289254"></ellipse>
                            <ellipse fill="#F08A5D" cx="49.7817535" cy="39.6289254" rx="3.98254028" ry="3.96289254"></ellipse>
                            <ellipse fill="#F08A5D" cx="49.1179968" cy="27.7402477" rx="3.31878357" ry="3.30241045"></ellipse>
                            <ellipse fill-opacity="0.5" fill="#F08A5D" cx="48.7861184" cy="16.1818112" rx="2.98690521" ry="2.9721694"></ellipse>
                            <ellipse fill="#F08A5D" cx="48.7861184" cy="3.63265149" rx="2.98690521" ry="2.9721694"></ellipse>
                            <ellipse fill="#F08A5D" cx="36.1747409" cy="110.63075" rx="2.98690521" ry="2.9721694"></ellipse>
                            <ellipse fill-opacity="0.5" fill="#F08A5D" cx="36.1747409" cy="99.4025544" rx="2.98690521" ry="2.9721694"></ellipse>
                            <ellipse fill="#F9ED69" cx="36.5066192" cy="87.8441179" rx="3.31878357" ry="3.30241045"></ellipse>
                            <ellipse fill-opacity="0.700000048" fill="#F9ED69" cx="36.5066192" cy="76.6159224" rx="3.31878357" ry="3.30241045"></ellipse>
                            <ellipse fill="#F08A5D" cx="37.1703759" cy="64.7272447" rx="3.98254028" ry="3.96289254"></ellipse>
                            <ellipse fill="#F9ED69" cx="37.1703759" cy="52.178085" rx="3.98254028" ry="3.96289254"></ellipse>
                            <ellipse fill="#F08A5D" cx="37.1703759" cy="39.6289254" rx="3.98254028" ry="3.96289254"></ellipse>
                            <ellipse fill-opacity="0.5" fill="#F9ED69" cx="36.5066192" cy="27.7402477" rx="3.31878357" ry="3.30241045"></ellipse>
                            <ellipse fill-opacity="0.5" fill="#F08A5D" cx="36.1747409" cy="16.1818112" rx="2.98690521" ry="2.9721694"></ellipse>
                            <ellipse fill="#F08A5D" cx="36.1747409" cy="3.63265149" rx="2.98690521" ry="2.9721694"></ellipse>
                            <ellipse fill="#F08A5D" cx="24.8908767" cy="109.970268" rx="2.98690521" ry="2.9721694"></ellipse>
                            <ellipse fill="#F08A5D" cx="24.8908767" cy="98.7420723" rx="2.98690521" ry="2.9721694"></ellipse>
                            <ellipse fill-opacity="0.5" fill="#F08A5D" cx="25.2227551" cy="87.1836358" rx="3.31878357" ry="3.30241045"></ellipse>
                            <ellipse fill="#F08A5D" cx="25.2227551" cy="75.9554403" rx="3.31878357" ry="3.30241045"></ellipse>
                            <ellipse fill="#F08A5D" cx="25.2227551" cy="64.0667627" rx="3.31878357" ry="3.30241045"></ellipse>
                            <ellipse fill="#F08A5D" cx="25.2227551" cy="51.517603" rx="3.31878357" ry="3.30241045"></ellipse>
                            <ellipse fill-opacity="0.5" fill="#F08A5D" cx="25.2227551" cy="38.9684433" rx="3.31878357" ry="3.30241045"></ellipse>
                            <ellipse fill="#F9ED69" cx="25.2227551" cy="27.7402477" rx="3.31878357" ry="3.30241045"></ellipse>
                            <ellipse fill="#F08A5D" cx="24.8908767" cy="16.1818112" rx="2.98690521" ry="2.9721694"></ellipse>
                            <ellipse fill="#F08A5D" cx="24.8908767" cy="3.63265149" rx="2.98690521" ry="2.9721694"></ellipse>
                            <ellipse fill="#F08A5D" cx="13.6070126" cy="109.970268" rx="2.98690521" ry="2.9721694"></ellipse>
                            <ellipse fill="#F08A5D" cx="13.6070126" cy="98.7420723" rx="2.98690521" ry="2.9721694"></ellipse>
                            <ellipse fill="#F08A5D" cx="13.6070126" cy="86.8533947" rx="2.98690521" ry="2.9721694"></ellipse>
                            <ellipse fill="#F9ED69" cx="13.6070126" cy="75.6251992" rx="2.98690521" ry="2.9721694"></ellipse>
                            <ellipse fill-opacity="0.5" fill="#F08A5D" cx="13.6070126" cy="63.7365216" rx="2.98690521" ry="2.9721694"></ellipse>
                            <ellipse fill-opacity="0.5" fill="#F9ED69" cx="13.6070126" cy="51.1873619" rx="2.98690521" ry="2.9721694"></ellipse>
                            <ellipse fill-opacity="0.5" fill="#F08A5D" cx="13.6070126" cy="38.6382022" rx="2.98690521" ry="2.9721694"></ellipse>
                            <ellipse fill="#F08A5D" cx="13.6070126" cy="27.4100067" rx="2.98690521" ry="2.9721694"></ellipse>
                            <ellipse fill="#F08A5D" cx="13.6070126" cy="16.1818112" rx="2.98690521" ry="2.9721694"></ellipse>
                            <ellipse fill="#F08A5D" cx="13.6070126" cy="3.63265149" rx="2.98690521" ry="2.9721694"></ellipse>
                            <ellipse fill="#F08A5D" cx="2.98690521" cy="109.970268" rx="2.98690521" ry="2.9721694"></ellipse>
                            <ellipse fill="#F08A5D" cx="2.98690521" cy="98.7420723" rx="2.98690521" ry="2.9721694"></ellipse>
                            <ellipse fill="#F08A5D" cx="2.98690521" cy="86.8533947" rx="2.98690521" ry="2.9721694"></ellipse>
                            <ellipse fill="#F08A5D" cx="2.98690521" cy="75.6251992" rx="2.98690521" ry="2.9721694"></ellipse>
                            <ellipse fill="#F08A5D" cx="2.98690521" cy="63.7365216" rx="2.98690521" ry="2.9721694"></ellipse>
                            <ellipse fill="#F08A5D" cx="2.98690521" cy="51.1873619" rx="2.98690521" ry="2.9721694"></ellipse>
                            <ellipse fill="#F08A5D" cx="2.98690521" cy="38.6382022" rx="2.98690521" ry="2.9721694"></ellipse>
                            <ellipse fill="#F08A5D" cx="2.98690521" cy="27.4100067" rx="2.98690521" ry="2.9721694"></ellipse>
                            <ellipse fill="#F08A5D" cx="2.98690521" cy="16.1818112" rx="2.98690521" ry="2.9721694"></ellipse>
                        </g>
                    </g>
                </g>
                <polyline id="Path" fill="#FFFFFF" points="93.1744681 35.852459 57.7788777 86.7342923 64.9414282 86.7342923 54.8284024 119.399173 59.2528512 119.399173 84.3255705 84.639971 78.2147746 84.4314183 93.1744681 35.852459"></polyline>
            </g>
        </g>
    </g>
</svg>