<?xml version="1.0" encoding="UTF-8"?>
<svg width="34px" height="12px" viewBox="0 0 34 12" version="1.1" xmlns="http://www.w3.org/2000/svg" xmlns:xlink="http://www.w3.org/1999/xlink">
    <!-- Generator: Sketch 40.2 (33826) - http://www.bohemiancoding.com/sketch -->
    <title>transparent</title>
    <desc>Created with Sketch.</desc>
    <defs></defs>
    <g id="Page-1" stroke="none" stroke-width="1" fill="none" fill-rule="evenodd">
        <g id="P-8" transform="translate(-1176.000000, -1171.000000)" fill="#B83B5E">
            <path d="M1201.5,1171 C1199.18193,1171 1197.1905,1172.29844 1196.16806,1174.18604 C1195.47592,1173.4961 1194.4292,1172.8 1193,1172.8 C1191.5708,1172.8 1190.52407,1173.49595 1189.83194,1174.18604 C1188.80951,1172.29844 1186.81929,1171 1184.5,1171 C1181.56264,1171 1179.11342,1173.06162 1178.55121,1175.8 L1176,1175.8 L1176,1177 L1178.42857,1177 C1178.42857,1180.31435 1181.14615,1183 1184.5,1183 C1187.85385,1183 1190.57143,1180.31435 1190.57143,1177 C1190.57143,1176.45405 1190.47429,1175.93315 1190.33586,1175.43042 C1190.82521,1174.82207 1191.72257,1174 1193,1174 C1194.27743,1174 1195.17479,1174.82325 1195.66414,1175.43042 C1195.52571,1175.93315 1195.42857,1176.45405 1195.42857,1177 C1195.42857,1180.31435 1198.14615,1183 1201.5,1183 C1204.85385,1183 1207.57143,1180.31435 1207.57143,1177 L1210,1177 L1210,1175.8 L1207.44879,1175.8 C1206.88657,1173.06162 1204.43737,1171 1201.5,1171 L1201.5,1171 Z M1184.5,1181.8 C1181.82129,1181.8 1179.64286,1179.64595 1179.64286,1177 C1179.64286,1174.35405 1181.82129,1172.2 1184.5,1172.2 C1187.1787,1172.2 1189.35714,1174.35405 1189.35714,1177 C1189.35714,1179.64595 1187.1787,1181.8 1184.5,1181.8 L1184.5,1181.8 Z M1201.5,1181.8 C1198.8213,1181.8 1196.64286,1179.64595 1196.64286,1177 C1196.64286,1174.35405 1198.8213,1172.2 1201.5,1172.2 C1204.1787,1172.2 1206.35714,1174.35405 1206.35714,1177 C1206.35714,1179.64595 1204.1787,1181.8 1201.5,1181.8 L1201.5,1181.8 Z" id="transparent"></path>
        </g>
    </g>
</svg>